<svg width="163" height="49" viewBox="0 0 163 49" fill="none" xmlns="http://www.w3.org/2000/svg">
<mask id="mask0_0_48" style="mask-type:luminance" maskUnits="userSpaceOnUse" x="27" y="31" width="19" height="16">
<path d="M33.8603 43.3769C33.4803 43.2569 33.1803 43.0769 32.9703 42.7769C32.7603 42.4769 32.6403 42.1269 32.6403 41.6769C32.6403 41.2669 32.7603 40.7869 32.9703 40.3469C33.1803 39.8669 33.4703 39.3969 33.8603 38.9469C34.2203 38.5069 34.6903 38.0569 35.1703 37.6969C35.6803 37.3169 36.2103 36.9869 36.8003 36.7169C37.3603 36.4469 37.9303 36.2769 38.4303 36.1869C38.9303 36.1269 39.3803 36.1269 39.7903 36.2469C40.1703 36.3369 40.5003 36.5169 40.7403 36.7769C40.9703 37.0469 41.0903 37.3969 41.1203 37.8469C41.1503 38.2569 41.0303 38.7369 40.8203 39.2069C40.6403 39.6769 40.3203 40.1569 39.9303 40.6369C39.5703 41.1069 39.1003 41.5569 38.6003 41.9369C38.0703 42.3469 37.5003 42.6769 36.9103 42.9469C36.3103 43.2169 35.7503 43.3869 35.2203 43.4569L34.7203 43.4869C34.3903 43.4869 34.1203 43.4569 33.8603 43.3669M39.1403 31.2069C38.1003 31.3869 36.9803 31.7369 35.7903 32.3069C34.6403 32.8369 33.5103 33.5269 32.5003 34.3269C31.4903 35.0969 30.6103 35.9569 29.8303 36.8769C29.0303 37.7969 28.4103 38.7469 27.9603 39.6869C27.4903 40.6369 27.2203 41.5869 27.1903 42.5069C27.1603 43.3969 27.3703 44.1669 27.7803 44.7569C28.1903 45.3769 28.8203 45.8269 29.6203 46.0969C30.3903 46.3569 31.3703 46.4169 32.4403 46.3069C33.5403 46.1869 34.6903 45.5369 35.9703 44.9769C37.2403 44.4169 38.2203 43.6169 39.3203 42.7569C40.4203 41.9269 41.3703 41.0069 42.2003 39.9969C43.0003 39.0169 43.8003 38.2469 44.3003 37.2669C44.8703 36.0769 45.1603 35.2169 45.0703 34.3269C45.0103 33.4369 44.5703 32.7569 44.0603 32.2169C43.5603 31.6869 42.8103 31.3869 41.9803 31.2069C41.5603 31.1169 41.1203 31.0569 40.6503 31.0569C40.1803 31.0569 39.6703 31.1169 39.1403 31.2069Z" fill="white"/>
</mask>
<g mask="url(#mask0_0_48)">
<path d="M55.9604 31.0869C55.9604 40.6069 48.2403 48.3369 38.7203 48.3369C29.2003 48.3369 21.4803 40.6069 21.4803 31.0869C21.4803 21.5669 29.2003 13.8369 38.7203 13.8369C48.2403 13.8369 55.9604 21.5569 55.9604 31.0869ZM57.0403 31.0869C57.0403 20.9869 48.8503 12.7869 38.7603 12.7869C28.6703 12.7869 20.4803 20.9869 20.4803 31.0869C20.4803 41.1869 28.6703 49.3769 38.7603 49.3769C48.8503 49.3769 57.0403 41.1769 57.0403 31.0869Z" fill="#E43C13"/>
<path d="M54.9091 31.0869C54.9091 40.0269 47.6591 47.2869 38.7191 47.2869C29.7791 47.2869 22.5291 40.0269 22.5291 31.0869C22.5291 22.1469 29.7791 14.8869 38.7191 14.8869C47.6591 14.8869 54.9091 22.1469 54.9091 31.0869ZM55.9291 31.0869C55.9291 21.5669 48.2091 13.8369 38.6891 13.8369C29.1691 13.8369 21.4491 21.5669 21.4491 31.0869C21.4491 40.6069 29.1691 48.3269 38.6891 48.3269C48.2091 48.3269 55.9291 40.6069 55.9291 31.0869Z" fill="#EF4134"/>
<path d="M53.8704 31.0868C53.8704 39.4568 47.0804 46.2468 38.7204 46.2468C30.3604 46.2468 23.5704 39.4568 23.5704 31.0868C23.5704 22.7168 30.3604 15.9268 38.7204 15.9268C47.0804 15.9268 53.8704 22.7168 53.8704 31.0868ZM54.9504 31.0868C54.9504 22.1368 47.7004 14.8868 38.7604 14.8868C29.8204 14.8868 22.5704 22.1468 22.5704 31.0868C22.5704 40.0268 29.8204 47.2868 38.7604 47.2868C47.7004 47.2868 54.9504 40.0268 54.9504 31.0868Z" fill="#EE533F"/>
<path d="M52.8214 31.0869C52.8214 38.8769 46.5014 45.1969 38.7214 45.1969C30.9414 45.1969 24.6214 38.8769 24.6214 31.0869C24.6214 23.2969 30.9414 16.9769 38.7214 16.9769C46.5014 16.9769 52.8214 23.2969 52.8214 31.0869ZM53.9014 31.0869C53.9014 22.7169 47.1114 15.9269 38.7514 15.9269C30.3914 15.9269 23.6014 22.7169 23.6014 31.0869C23.6014 39.4569 30.3914 46.2469 38.7514 46.2469C47.1114 46.2469 53.9014 39.4569 53.9014 31.0869Z" fill="#EF6148"/>
<path d="M51.7797 31.0868C51.7797 38.2968 45.9297 44.1568 38.7197 44.1568C31.5097 44.1568 25.6597 38.3068 25.6597 31.0868C25.6597 23.8668 31.5097 18.0168 38.7197 18.0168C45.9297 18.0168 51.7797 23.8668 51.7797 31.0868ZM52.7997 31.0868C52.7997 23.2968 46.4797 16.9768 38.6997 16.9768C30.9197 16.9768 24.5897 23.2968 24.5897 31.0868C24.5897 38.8768 30.9097 45.1968 38.6997 45.1968C46.4897 45.1968 52.7997 38.8668 52.7997 31.0868Z" fill="#F06C52"/>
<path d="M50.7288 31.0868C50.7288 37.7268 45.3488 43.1068 38.7188 43.1068C32.0888 43.1068 26.6988 37.7168 26.6988 31.0868C26.6988 24.4568 32.0888 19.0668 38.7188 19.0668C45.3488 19.0668 50.7288 24.4568 50.7288 31.0868ZM51.7488 31.0868C51.7488 23.8768 45.8988 18.0168 38.6888 18.0168C31.4788 18.0168 25.6288 23.8768 25.6288 31.0868C25.6288 38.2968 31.4788 44.1568 38.6888 44.1568C45.8988 44.1568 51.7488 38.3068 51.7488 31.0868Z" fill="#F1785D"/>
<path d="M49.6921 31.0868C49.6921 37.1468 44.7721 42.0568 38.7221 42.0568C32.6721 42.0568 27.7521 37.1368 27.7521 31.0868C27.7521 25.0368 32.6721 20.1068 38.7221 20.1068C44.7721 20.1068 49.6921 25.0268 49.6921 31.0868ZM50.7721 31.1368C50.7721 24.4968 45.3821 19.1168 38.7521 19.1168C32.1221 19.1168 26.7421 24.5068 26.7421 31.1368C26.7421 37.7668 32.1221 43.1568 38.7521 43.1568C45.3821 43.1568 50.7721 37.7668 50.7721 31.1368Z" fill="#F28265"/>
<path d="M48.6386 31.0868C48.6386 36.5668 44.1986 41.0168 38.7186 41.0168C33.2386 41.0168 28.7986 36.5668 28.7986 31.0868C28.7986 25.6068 33.2486 21.1568 38.7186 21.1568C44.1886 21.1568 48.6386 25.6068 48.6386 31.0868ZM49.6586 31.0868C49.6586 25.0268 44.7386 20.1068 38.6886 20.1068C32.6386 20.1068 27.7186 25.0268 27.7186 31.0868C27.7186 37.1468 32.6286 42.0668 38.6886 42.0668C44.7486 42.0668 49.6586 37.1468 49.6586 31.0868Z" fill="#F38A6E"/>
<path d="M47.5994 31.0869C47.5994 35.9869 43.6194 39.9669 38.7194 39.9669C33.8194 39.9669 29.8394 35.9869 29.8394 31.0869C29.8394 26.1869 33.8194 22.1969 38.7194 22.1969C43.6194 22.1969 47.5994 26.1769 47.5994 31.0869ZM48.6194 31.0869C48.6194 25.6069 44.1694 21.1569 38.6994 21.1569C33.2294 21.1569 28.7694 25.6069 28.7694 31.0869C28.7694 36.5669 33.2194 41.0169 38.6994 41.0169C44.1794 41.0169 48.6194 36.5669 48.6194 31.0869Z" fill="#F29379"/>
<path d="M46.551 31.0868C46.551 35.4168 43.041 38.9268 38.721 38.9268C34.401 38.9268 30.891 35.4168 30.891 31.0868C30.891 26.7568 34.401 23.2468 38.721 23.2468C43.041 23.2468 46.551 26.7568 46.551 31.0868ZM47.631 31.1368C47.631 26.2268 43.651 22.2468 38.751 22.2468C33.851 22.2468 29.871 26.2268 29.871 31.1368C29.871 36.0468 33.851 40.0168 38.751 40.0168C43.651 40.0168 47.631 36.0368 47.631 31.1368Z" fill="#F39D83"/>
<path d="M45.5118 31.0868C45.5118 34.8368 42.4718 37.8768 38.7218 37.8768C34.9718 37.8768 31.9318 34.8368 31.9318 31.0868C31.9318 27.3368 34.9718 24.2868 38.7218 24.2868C42.4718 24.2868 45.5118 27.3268 45.5118 31.0868ZM46.5918 31.0868C46.5918 26.7568 43.0818 23.2468 38.7618 23.2468C34.4418 23.2468 30.9218 26.7568 30.9218 31.0868C30.9218 35.4168 34.4318 38.9268 38.7618 38.9268C43.0918 38.9268 46.5918 35.4168 46.5918 31.0868Z" fill="#F5A68C"/>
<path d="M44.47 31.0869C44.47 34.2569 41.9 36.8369 38.72 36.8369C35.54 36.8369 32.97 34.2569 32.97 31.0869C32.97 27.9169 35.54 25.3369 38.72 25.3369C41.9 25.3369 44.47 27.9169 44.47 31.0869ZM45.49 31.0869C45.49 27.3369 42.45 24.2969 38.7 24.2969C34.95 24.2969 31.91 27.3369 31.91 31.0869C31.91 34.8369 34.95 37.8769 38.7 37.8769C42.45 37.8769 45.49 34.8369 45.49 31.0869Z" fill="#F6B198"/>
<path d="M43.4199 31.0869C43.4199 33.6869 41.3199 35.7869 38.7199 35.7869C36.1199 35.7869 34.0199 33.6769 34.0199 31.0869C34.0199 28.4969 36.1199 26.3769 38.7199 26.3769C41.3199 26.3769 43.4199 28.4869 43.4199 31.0869ZM44.4999 31.0869C44.4999 27.9169 41.9299 25.3369 38.7499 25.3369C35.5699 25.3369 32.9999 27.9169 32.9999 31.0869C32.9999 34.2569 35.5699 36.8369 38.7499 36.8369C41.9299 36.8369 44.4999 34.2569 44.4999 31.0869Z" fill="#F8BDA5"/>
<path d="M42.3785 31.0868C42.3785 33.1068 40.7485 34.7468 38.7185 34.7468C36.6885 34.7468 35.0585 33.1068 35.0585 31.0868C35.0585 29.0668 36.6985 27.4268 38.7185 27.4268C40.7385 27.4268 42.3785 29.0668 42.3785 31.0868ZM43.4585 31.0868C43.4585 28.4868 41.3585 26.3768 38.7585 26.3768C36.1585 26.3768 34.0585 28.4868 34.0585 31.0868C34.0585 33.6868 36.1585 35.7868 38.7585 35.7868C41.3585 35.7868 43.4585 33.6768 43.4585 31.0868Z" fill="#F8C8B3"/>
<path d="M41.3289 31.0869C41.3289 32.5269 40.1589 33.6969 38.7189 33.6969C37.2789 33.6969 36.1089 32.5269 36.1089 31.0869C36.1089 29.6469 37.2789 28.4769 38.7189 28.4769C40.1589 28.4769 41.3289 29.6469 41.3289 31.0869ZM42.3489 31.0869C42.3489 29.0669 40.7089 27.4269 38.6989 27.4269C36.6889 27.4269 35.0389 29.0669 35.0389 31.0869C35.0389 33.1069 36.6789 34.7469 38.6989 34.7469C40.7189 34.7469 42.3489 33.1069 42.3489 31.0869Z" fill="#FBD4C2"/>
<path d="M40.2819 31.0868C40.2819 31.9568 39.5819 32.6568 38.7219 32.6568C37.8619 32.6568 37.1519 31.9568 37.1519 31.0868C37.1519 30.2168 37.8519 29.5168 38.7219 29.5168C39.5919 29.5168 40.2819 30.2168 40.2819 31.0868ZM41.3019 31.0868C41.3019 29.6468 40.1319 28.4768 38.6919 28.4768C37.2519 28.4768 36.0819 29.6468 36.0819 31.0868C36.0819 32.5268 37.2519 33.6968 38.6919 33.6968C40.1319 33.6968 41.3019 32.5268 41.3019 31.0868Z" fill="#FDDFD1"/>
<path d="M39.2396 31.0869L38.7196 31.6069L38.1996 31.0869L38.7196 30.5669L39.2396 31.0869ZM40.3096 31.1369C40.3096 30.2669 39.6096 29.5669 38.7396 29.5669C37.8696 29.5669 37.1796 30.2669 37.1796 31.1369C37.1796 32.0069 37.8796 32.7069 38.7396 32.7069C39.5996 32.7069 40.3096 32.0069 40.3096 31.1369Z" fill="#FEEDE3"/>
<path d="M39.2118 31.0769L38.6918 30.5469L38.1718 31.0769L38.6918 31.5969L39.2118 31.0769Z" fill="white"/>
</g>
<mask id="mask1_0_48" style="mask-type:luminance" maskUnits="userSpaceOnUse" x="0" y="0" width="37" height="34">
<path d="M24.85 0.286858C23.6 0.556858 22.74 0.856857 21.29 1.44686C19.87 2.06686 18.38 2.83686 16.84 3.78686C14.68 5.12686 12.63 6.66686 10.73 8.29686C8.83 9.95686 7.08 11.7669 5.57 13.5769C4.06 15.4469 2.76 17.3469 1.75 19.2069C0.739999 21.0769 0.32 22.9469 0.0299997 24.6569C-2.66358e-07 24.9869 0.03 25.3069 0 25.6069C0 25.9369 0.27 27.9169 0.62 29.3769C0.77 29.9669 0.83 30.3269 1.04 30.9169C1.31 31.6269 1.81 32.6669 1.81 32.6669L2.05 33.1169L2.49 33.8569C2.34 33.5869 2.19 33.2969 2.1 32.9969C1.95 32.6069 1.83 32.1969 1.78 31.7769C1.72 31.3369 1.69 30.8869 1.69 30.4169C1.69 29.9469 1.72 29.4369 1.81 28.9069C2.08 27.0669 2.79 25.0769 3.83 23.0669C4.87 21.0769 6.23 19.0669 7.8 17.1069C9.37 15.1769 11.18 13.2769 13.17 11.5669C15.16 9.81686 17.32 8.21686 19.57 6.85686C21.41 5.75686 23.19 4.86686 24.85 4.21686C26.54 3.56686 28.17 3.14686 29.62 2.94686C31.1 2.76686 32.46 2.79686 33.62 3.09686C34.66 3.36686 35.55 3.83686 36.26 4.48686L35.25 3.47686L33.94 2.28686L33.26 1.78686L31.75 1.16686C30.92 0.896859 29.91 0.546859 28.82 0.366859C28.14 0.276859 27.22 0.15686 26.3 0.15686C25.83 0.15686 25.32 0.186858 24.85 0.306858" fill="white"/>
</mask>
<g mask="url(#mask1_0_48)">
<path d="M65.0892 0.417011C65.0892 22.477 47.1992 40.377 25.1492 40.377C3.09922 40.377 -14.7908 22.487 -14.7908 0.417011C-14.7908 -21.653 3.09922 -39.543 25.1492 -39.543C47.1992 -39.543 65.0892 -21.643 65.0892 0.417011ZM66.1592 0.437012C66.1492 -22.193 47.7992 -40.563 25.1792 -40.563C2.55922 -40.563 -15.8008 -22.193 -15.8008 0.437012C-15.8008 23.067 2.54922 41.437 25.1792 41.437C47.8092 41.437 66.1592 23.067 66.1592 0.437012Z" fill="#E43C13"/>
<path d="M64.0497 0.417049C64.0497 21.9071 46.6197 39.3371 25.1497 39.3371C3.67969 39.3371 -13.7503 21.9071 -13.7503 0.417049C-13.7503 -21.073 3.67969 -38.5029 25.1497 -38.5029C46.6197 -38.5029 64.0497 -21.063 64.0497 0.417049ZM65.0597 0.43705C65.0597 -21.6229 47.1597 -39.5229 25.1197 -39.5229C3.07969 -39.5229 -14.8203 -21.6229 -14.8203 0.43705C-14.8203 22.497 3.06969 40.397 25.1197 40.397C47.1697 40.397 65.0597 22.497 65.0597 0.43705Z" fill="#EF3730"/>
<path d="M63.0073 0.41703C63.0073 21.327 46.0473 38.307 25.1373 38.307C4.22734 38.307 -12.7227 21.337 -12.7227 0.41703C-12.7227 -20.503 4.24735 -37.463 25.1473 -37.463C46.0473 -37.463 63.0173 -20.493 63.0173 0.427032M64.0873 0.387032C64.0773 -21.103 46.6473 -38.543 25.1773 -38.543C3.70735 -38.543 -13.7227 -21.103 -13.7227 0.377029C-13.7227 21.857 3.70735 39.307 25.1773 39.307C46.6473 39.307 64.0773 21.867 64.0773 0.377029" fill="#EF3F32"/>
<path d="M61.9686 0.416874C61.9686 20.7569 45.4686 37.2669 25.1386 37.2669C4.80859 37.2669 -11.6814 20.7669 -11.6814 0.416874C-11.6814 -19.9331 4.81859 -36.4331 25.1486 -36.4331C45.4786 -36.4331 61.9786 -19.9231 61.9786 0.416874M63.0386 0.436874C63.0386 -20.4731 46.0686 -37.4531 25.1786 -37.4531C4.28859 -37.4531 -12.6914 -20.4731 -12.6914 0.436874C-12.6914 21.3469 4.26859 38.3269 25.1786 38.3269C46.0886 38.3269 63.0386 21.3569 63.0386 0.436874Z" fill="#EE4837"/>
<path d="M60.9392 0.416912C60.9392 20.1869 44.8992 36.2269 25.1492 36.2269C5.39925 36.2269 -10.6408 20.1869 -10.6408 0.416912C-10.6408 -19.3531 5.38925 -35.3931 25.1492 -35.3931C44.9092 -35.3931 60.9392 -19.3531 60.9392 0.416912ZM61.9392 0.436913C61.9392 -19.9031 45.4392 -36.4131 25.1092 -36.4131C4.77925 -36.4131 -11.7108 -19.9031 -11.7108 0.436913C-11.7108 20.7769 4.78924 37.2869 25.1192 37.2869C45.4492 37.2869 61.9492 20.7769 61.9492 0.436913" fill="#EF4E3B"/>
<path d="M59.9006 0.416893C59.9006 19.6069 44.3306 35.1869 25.1506 35.1869C5.97063 35.1869 -9.59938 19.6169 -9.59938 0.416893C-9.59938 -18.7831 5.97063 -34.3531 25.1506 -34.3531C44.3306 -34.3531 59.9006 -18.7731 59.9006 0.416893ZM60.9706 0.376892C60.9706 -19.3931 44.9306 -35.4331 25.1806 -35.4331C5.43063 -35.4331 -10.6094 -19.3931 -10.6094 0.376892C-10.6094 20.1469 5.43063 36.1869 25.1806 36.1869C44.9306 36.1869 60.9706 20.1469 60.9706 0.376892Z" fill="#ED5640"/>
<path d="M58.8592 0.417C58.8592 19.037 43.7492 34.147 25.1392 34.147C6.52919 34.147 -8.57081 19.037 -8.57081 0.417C-8.57081 -18.203 6.52919 -33.313 25.1492 -33.313C43.7692 -33.313 58.8692 -18.203 58.8692 0.427002M59.8692 0.446999C59.8692 -18.743 44.2992 -34.323 25.1192 -34.323C5.93919 -34.323 -9.64081 -18.753 -9.64081 0.437004C-9.64081 19.627 5.92919 35.207 25.1092 35.207C44.2892 35.207 59.8592 19.627 59.8592 0.437004" fill="#EE5B44"/>
<path d="M57.8284 0.417042C57.8284 18.467 43.1884 33.117 25.1484 33.117C7.10844 33.117 -7.53156 18.467 -7.53156 0.417042C-7.53156 -17.633 7.10844 -32.273 25.1484 -32.273C43.1884 -32.273 57.8284 -17.623 57.8284 0.427044M58.8284 0.447041C58.8284 -18.173 43.7184 -33.283 25.1184 -33.283C6.51843 -33.283 -8.60156 -18.183 -8.60156 0.437042C-8.60156 19.057 6.49844 34.177 25.1084 34.177C43.7184 34.177 58.8184 19.067 58.8184 0.437042" fill="#EF6248"/>
<path d="M56.79 0.417061C56.79 17.8871 42.62 32.0771 25.15 32.0771C7.68 32.0771 -6.49 17.8971 -6.49 0.417061C-6.49 -17.0629 7.68 -31.2429 25.15 -31.2429C42.62 -31.2429 56.79 -17.0629 56.79 0.417061ZM57.86 0.437061C57.86 -17.6129 43.22 -32.2629 25.18 -32.2629C7.14 -32.2629 -7.5 -17.6129 -7.5 0.437061C-7.5 18.4871 7.14 33.1371 25.18 33.1371C43.22 33.1371 57.86 18.4871 57.86 0.437061Z" fill="#EF664C"/>
<path d="M55.7505 0.416855C55.7505 17.3169 42.0405 31.0369 25.1505 31.0369C8.26047 31.0369 -5.44953 17.3169 -5.44953 0.416855C-5.44953 -16.4831 8.26047 -30.2031 25.1505 -30.2031C42.0405 -30.2031 55.7505 -16.4831 55.7505 0.416855ZM56.7505 0.436855C56.7505 -17.0331 42.5805 -31.2231 25.1105 -31.2231C7.64047 -31.2231 -6.51953 -17.0331 -6.51953 0.436855C-6.51953 17.9069 7.66047 32.0969 25.1205 32.0969C42.5805 32.0969 56.7605 17.9169 56.7605 0.436855" fill="#F06D52"/>
<path d="M54.7103 0.416836C54.7103 16.7468 41.4603 29.9968 25.1403 29.9968C8.82031 29.9968 -4.41969 16.7468 -4.41969 0.416836C-4.41969 -15.9132 8.83031 -29.1632 25.1503 -29.1632C41.4703 -29.1632 54.7203 -15.9132 54.7203 0.416836M55.7903 0.376835C55.7903 -16.5232 42.0803 -30.2432 25.1903 -30.2432C8.30032 -30.2432 -5.42969 -16.5232 -5.42969 0.376835C-5.42969 17.2768 8.28032 30.9968 25.1703 30.9968C42.0603 30.9968 55.7703 17.2768 55.7703 0.376835" fill="#F07155"/>
<path d="M53.6792 0.416943C53.6792 16.1669 40.8992 28.9569 25.1492 28.9569C9.39919 28.9569 -3.38081 16.1669 -3.38081 0.416943C-3.38081 -15.3331 9.39919 -28.1231 25.1492 -28.1231C40.8992 -28.1231 53.6792 -15.3331 53.6792 0.426945M54.7492 0.446941C54.7492 -15.8831 41.4992 -29.1331 25.1792 -29.1331C8.85919 -29.1331 -4.39081 -15.8931 -4.39081 0.436943C-4.39081 16.7669 8.84919 30.0169 25.1692 30.0169C41.4892 30.0169 54.7392 16.7669 54.7392 0.436943" fill="#F1765B"/>
<path d="M52.6398 0.416981C52.6398 15.597 40.3198 27.927 25.1498 27.927C9.97985 27.927 -2.34016 15.607 -2.34016 0.416981C-2.34016 -14.773 9.96984 -27.083 25.1498 -27.083C40.3298 -27.083 52.6398 -14.763 52.6398 0.426983M53.6498 0.44698C53.6498 -15.313 40.8698 -28.093 25.1198 -28.093C9.36984 -28.093 -3.41016 -15.323 -3.41016 0.436981C-3.41016 16.197 9.36984 28.977 25.1198 28.977C40.8698 28.977 53.6498 16.187 53.6498 0.436981" fill="#F17A5F"/>
<path d="M51.6075 0.416962C51.6075 15.027 39.7475 26.887 25.1475 26.887C10.5475 26.887 -1.3025 15.027 -1.3025 0.416962C-1.3025 -14.193 10.5475 -26.043 25.1475 -26.043C39.7475 -26.043 51.6075 -14.183 51.6075 0.426964M52.6675 0.386963C52.6675 -14.793 40.3575 -27.113 25.1775 -27.113C9.9975 -27.113 -2.3125 -14.803 -2.3125 0.376961C-2.3125 15.557 10.0075 27.887 25.1775 27.887C40.3475 27.887 52.6675 15.567 52.6675 0.376961" fill="#F17F63"/>
<path d="M50.5688 0.417042C50.5688 14.457 39.1787 25.847 25.1488 25.847C11.1188 25.847 -0.271251 14.457 -0.271251 0.417042C-0.271251 -13.623 11.1188 -25.013 25.1488 -25.013C39.1787 -25.013 50.5688 -13.623 50.5688 0.417042ZM51.6287 0.437042C51.6287 -14.173 39.7788 -26.033 25.1688 -26.033C10.5588 -26.033 -1.28125 -14.173 -1.28125 0.437042C-1.28125 15.047 10.5688 26.907 25.1688 26.907C39.7688 26.907 51.6287 15.047 51.6287 0.437042Z" fill="#F28366"/>
<path d="M49.5292 0.41708C49.5292 13.8771 38.6092 24.8071 25.1492 24.8071C11.6892 24.8071 0.769218 13.8771 0.769218 0.41708C0.769218 -13.0429 11.6892 -23.9729 25.1492 -23.9729C38.6092 -23.9729 49.5292 -13.0429 49.5292 0.41708ZM50.5292 0.43708C50.5292 -13.6029 39.1492 -24.9929 25.1192 -24.9929C11.0892 -24.9929 -0.300781 -13.6029 -0.300781 0.43708C-0.300781 14.4771 11.0892 25.8671 25.1092 25.8671C39.1292 25.8671 50.5192 14.4771 50.5192 0.43708" fill="#F2876A"/>
<path d="M48.4892 0.417061C48.4892 13.3071 38.0292 23.7671 25.1492 23.7671C12.2692 23.7671 1.80925 13.3071 1.80925 0.417061C1.80925 -12.4729 12.2692 -22.9329 25.1492 -22.9329C38.0292 -22.9329 48.4892 -12.4729 48.4892 0.417061ZM49.5492 0.37706C49.5492 -13.0829 38.6292 -24.0129 25.1692 -24.0129C11.7092 -24.0129 0.789246 -13.0829 0.789246 0.37706C0.789246 13.8371 11.7092 24.7671 25.1692 24.7671C38.6292 24.7671 49.5492 13.8371 49.5492 0.37706Z" fill="#F38A6E"/>
<path d="M47.4473 0.416914C47.4473 12.7369 37.4573 22.7369 25.1473 22.7369C12.8373 22.7369 2.84734 12.7369 2.84734 0.416914C2.84734 -11.9031 12.8373 -21.9031 25.1473 -21.9031C37.4573 -21.9031 47.4473 -11.9031 47.4473 0.416914ZM48.4573 0.436914C48.4573 -12.4531 37.9973 -22.9131 25.1173 -22.9131C12.2373 -22.9131 1.77734 -12.4531 1.77734 0.436914C1.77734 13.3269 12.2373 23.7969 25.1173 23.7969C37.9973 23.7969 48.4573 13.3369 48.4573 0.436914Z" fill="#F38D72"/>
<path d="M46.4186 0.417187C46.4186 12.1572 36.8886 21.6972 25.1486 21.6972C13.4086 21.6972 3.87859 12.1672 3.87859 0.417187C3.87859 -11.3328 13.4086 -20.8628 25.1486 -20.8628C36.8886 -20.8628 46.4186 -11.3328 46.4186 0.417187ZM47.4186 0.437187C47.4186 -11.8828 37.4286 -21.8828 25.1186 -21.8828C12.8086 -21.8828 2.80859 -11.8828 2.80859 0.437187C2.80859 12.7572 12.7986 22.7572 25.1186 22.7572C37.4386 22.7572 47.4186 12.7572 47.4186 0.437187Z" fill="#F39377"/>
<path d="M45.3784 0.417168C45.3784 11.5872 36.3184 20.6572 25.1484 20.6572C13.9784 20.6572 4.91844 11.5872 4.91844 0.417168C4.91844 -10.7528 13.9784 -19.8228 25.1484 -19.8228C36.3184 -19.8228 45.3784 -10.7528 45.3784 0.417168ZM46.4384 0.377167C46.4384 -11.3628 36.9084 -20.9028 25.1684 -20.9028C13.4284 -20.9028 3.89844 -11.3728 3.89844 0.377167C3.89844 12.1272 13.4284 21.6572 25.1684 21.6572C36.9084 21.6572 46.4384 12.1272 46.4384 0.377167Z" fill="#F3967B"/>
<path d="M44.3389 0.417021C44.3389 11.017 35.7389 19.617 25.1489 19.617C14.5589 19.617 5.95891 11.017 5.95891 0.417021C5.95891 -10.183 14.5589 -18.783 25.1489 -18.783C35.7389 -18.783 44.3389 -10.183 44.3389 0.417021ZM45.3389 0.437021C45.3389 -10.733 36.2789 -19.803 25.1089 -19.803C13.9389 -19.803 4.87891 -10.733 4.87891 0.437021C4.87891 11.607 13.9389 20.677 25.1089 20.677C36.2789 20.677 45.3389 11.607 45.3389 0.437021Z" fill="#F39B80"/>
<path d="M43.3005 0.417061C43.3005 10.4371 35.1705 18.5771 25.1405 18.5771C15.1105 18.5771 6.99047 10.4371 6.99047 0.417061C6.99047 -9.60294 15.1205 -17.7529 25.1405 -17.7529C35.1605 -17.7529 43.3005 -9.61294 43.3005 0.417061ZM44.3605 0.437061C44.3605 -10.1629 35.7605 -18.7629 25.1705 -18.7629C14.5805 -18.7629 5.98047 -10.1629 5.98047 0.437061C5.98047 11.0371 14.5805 19.6371 25.1705 19.6371C35.7605 19.6371 44.3605 11.0371 44.3605 0.437061Z" fill="#F49E84"/>
<path d="M42.2695 0.416855C42.2695 9.86686 34.5995 17.5469 25.1495 17.5469C15.6995 17.5469 8.02953 9.87685 8.02953 0.416855C8.02953 -9.04315 15.6995 -16.7131 25.1495 -16.7131C34.5995 -16.7131 42.2695 -9.04315 42.2695 0.416855ZM43.3295 0.436855C43.3295 -9.59314 35.1995 -17.7231 25.1795 -17.7231C15.1595 -17.7231 7.01953 -9.58315 7.01953 0.436855C7.01953 10.4569 15.1495 18.6069 25.1795 18.6069C35.2095 18.6069 43.3295 10.4669 43.3295 0.436855Z" fill="#F5A288"/>
<path d="M41.2283 0.417128C41.2283 9.29713 34.0283 16.5071 25.1483 16.5071C16.2683 16.5071 9.06828 9.29713 9.06828 0.417128C9.06828 -8.46287 16.2683 -15.6729 25.1483 -15.6729C34.0283 -15.6729 41.2283 -8.46287 41.2283 0.417128ZM42.2283 0.437128C42.2283 -9.01287 34.5583 -16.6929 25.1083 -16.6929C15.6583 -16.6929 7.98828 -9.02287 7.98828 0.437128C7.98828 9.89713 15.6583 17.5671 25.1083 17.5671C34.5583 17.5671 42.2283 9.89713 42.2283 0.437128Z" fill="#F5A68C"/>
<path d="M40.1898 0.417109C40.1898 8.72711 33.4498 15.4671 25.1498 15.4671C16.8498 15.4671 10.1098 8.72711 10.1098 0.417109C10.1098 -7.89289 16.8498 -14.6329 25.1498 -14.6329C33.4498 -14.6329 40.1898 -7.89289 40.1898 0.417109ZM41.2498 0.377108C41.2498 -8.50289 34.0498 -15.7129 25.1698 -15.7129C16.2898 -15.7129 9.08984 -8.50289 9.08984 0.377108C9.08984 9.25711 16.2898 16.4671 25.1698 16.4671C34.0498 16.4671 41.2498 9.25711 41.2498 0.377108Z" fill="#F6AC92"/>
<path d="M39.1489 0.416962C39.1489 8.15696 32.8689 14.427 25.1489 14.427C17.4289 14.427 11.1489 8.14696 11.1489 0.416962C11.1489 -7.31304 17.4189 -13.593 25.1489 -13.593C32.8789 -13.593 39.1489 -7.31304 39.1489 0.416962ZM40.2089 0.436962C40.2089 -7.87304 33.4689 -14.613 25.1689 -14.613C16.8689 -14.613 10.1289 -7.87304 10.1289 0.436962C10.1289 8.74696 16.8689 15.487 25.1689 15.487C33.4689 15.487 40.2089 8.74696 40.2089 0.436962Z" fill="#F8B096"/>
<path d="M38.1189 0.417002C38.1189 7.577 32.3089 13.387 25.1489 13.387C17.9889 13.387 12.1789 7.577 12.1789 0.417002C12.1789 -6.743 17.9889 -12.563 25.1489 -12.563C32.3089 -12.563 38.1189 -6.753 38.1189 0.417002ZM39.1289 0.437002C39.1289 -7.293 32.8589 -13.573 25.1289 -13.573C17.3989 -13.573 11.1289 -7.293 11.1289 0.437002C11.1289 8.167 17.3989 14.447 25.1289 14.447C32.8589 14.447 39.1289 8.167 39.1289 0.437002Z" fill="#F6B49B"/>
<path d="M37.0792 0.416983C37.0792 7.00698 31.7292 12.357 25.1492 12.357C18.5692 12.357 13.2192 7.00698 13.2192 0.416983C13.2192 -6.17302 18.5692 -11.523 25.1492 -11.523C31.7292 -11.523 37.0792 -6.17302 37.0792 0.416983ZM38.1392 0.376982C38.1392 -6.78302 32.3292 -12.593 25.1692 -12.593C18.0092 -12.593 12.1992 -6.78302 12.1992 0.376982C12.1992 7.53698 18.0092 13.357 25.1692 13.357C32.3292 13.357 38.1392 7.54698 38.1392 0.376982Z" fill="#F9B9A2"/>
<path d="M36.0375 0.416958C36.0375 6.43696 31.1575 11.317 25.1475 11.317C19.1375 11.317 14.2575 6.43696 14.2575 0.416958C14.2575 -5.60304 19.1375 -10.483 25.1475 -10.483C31.1575 -10.483 36.0375 -5.60304 36.0375 0.416958ZM37.0475 0.436958C37.0475 -6.15304 31.7075 -11.493 25.1175 -11.493C18.5275 -11.493 13.1875 -6.14304 13.1875 0.436958C13.1875 7.01696 18.5275 12.377 25.1175 12.377C31.7075 12.377 37.0475 7.02696 37.0475 0.436958Z" fill="#F8BFA8"/>
<path d="M35.0009 0.416986C35.0009 5.85699 30.5909 10.277 25.1509 10.277C19.7109 10.277 15.2909 5.85699 15.2909 0.416986C15.2909 -5.02301 19.7009 -9.44301 25.1509 -9.44301C30.6009 -9.44301 35.0009 -5.02301 35.0009 0.416986ZM36.0009 0.436987C36.0009 -5.58301 31.1209 -10.463 25.1109 -10.463C19.1009 -10.463 14.2109 -5.58301 14.2109 0.436987C14.2109 6.45699 19.0909 11.337 25.1109 11.337C31.1309 11.337 36.0009 6.45699 36.0009 0.436987Z" fill="#FAC4AF"/>
<path d="M33.9681 0.416967C33.9681 5.28697 30.0181 9.23697 25.1481 9.23697C20.2781 9.23697 16.3281 5.28697 16.3281 0.416967C16.3281 -4.45303 20.2781 -8.40303 25.1481 -8.40303C30.0181 -8.40303 33.9681 -4.45303 33.9681 0.416967ZM35.0381 0.376966C35.0381 -5.06303 30.6281 -9.48303 25.1881 -9.48303C19.7481 -9.48303 15.3281 -5.06303 15.3281 0.376966C15.3281 5.81697 19.7481 10.237 25.1881 10.237C30.6281 10.237 35.0381 5.81697 35.0381 0.376966Z" fill="#F9C9B4"/>
<path d="M32.9292 0.417065C32.9292 4.71706 29.4392 8.20707 25.1492 8.20707C20.8592 8.20707 17.3692 4.71706 17.3692 0.417065C17.3692 -3.88294 20.8592 -7.36293 25.1492 -7.36293C29.4392 -7.36293 32.9292 -3.88294 32.9292 0.417065ZM33.9292 0.437065C33.9292 -4.43293 29.9792 -8.38293 25.1092 -8.38293C20.2392 -8.38293 16.2892 -4.43293 16.2892 0.437065C16.2892 5.30707 20.2392 9.25706 25.1092 9.25706C29.9792 9.25706 33.9292 5.30707 33.9292 0.437065Z" fill="#F9CEBA"/>
<path d="M31.8884 0.416981C31.8884 4.13698 28.8684 7.16698 25.1484 7.16698C21.4284 7.16698 18.4084 4.13698 18.4084 0.416981C18.4084 -3.30302 21.4284 -6.33302 25.1484 -6.33302C28.8684 -6.33302 31.8884 -3.31302 31.8884 0.416981ZM32.9584 0.436981C32.9584 -3.86302 29.4684 -7.34302 25.1784 -7.34302C20.8884 -7.34302 17.3984 -3.85302 17.3984 0.436981C17.3984 4.72698 20.8884 8.22698 25.1784 8.22698C29.4684 8.22698 32.9584 4.73698 32.9584 0.436981Z" fill="#FBD3C0"/>
<path d="M30.8575 0.417011C30.8575 3.56701 28.2975 6.12701 25.1475 6.12701C21.9975 6.12701 19.4375 3.56701 19.4375 0.417011C19.4375 -2.73299 21.9975 -5.29299 25.1475 -5.29299C28.2975 -5.29299 30.8575 -2.73299 30.8575 0.417011ZM31.9175 0.437012C31.9175 -3.28299 28.8975 -6.31299 25.1775 -6.31299C21.4575 -6.31299 18.4375 -3.29299 18.4375 0.437012C18.4375 4.16701 21.4575 7.18701 25.1775 7.18701C28.8975 7.18701 31.9175 4.16701 31.9175 0.437012Z" fill="#FBD8C7"/>
<path d="M29.8202 0.417049C29.8202 2.99705 27.7302 5.08705 25.1502 5.08705C22.5702 5.08705 20.4802 2.99705 20.4802 0.417049C20.4802 -2.16295 22.5702 -4.25295 25.1502 -4.25295C27.7302 -4.25295 29.8202 -2.16295 29.8202 0.417049ZM30.8202 0.43705C30.8202 -2.71295 28.2702 -5.27295 25.1202 -5.27295C21.9702 -5.27295 19.4102 -2.71295 19.4102 0.43705C19.4102 3.58705 21.9702 6.14705 25.1202 6.14705C28.2702 6.14705 30.8202 3.58705 30.8202 0.43705Z" fill="#FDDECE"/>
<path d="M28.7778 0.41703C28.7778 2.42703 27.1578 4.04703 25.1478 4.04703C23.1378 4.04703 21.5178 2.41703 21.5178 0.41703C21.5178 -1.58297 23.1378 -3.21297 25.1478 -3.21297C27.1578 -3.21297 28.7778 -1.58297 28.7778 0.41703ZM29.8478 0.377029C29.8478 -2.20297 27.7578 -4.29297 25.1778 -4.29297C22.5978 -4.29297 20.5078 -2.20297 20.5078 0.377029C20.5078 2.95703 22.5978 5.04703 25.1778 5.04703C27.7578 5.04703 29.8478 2.95703 29.8478 0.377029Z" fill="#FCE2D6"/>
<path d="M27.7408 0.417007C27.7408 1.84701 26.5808 3.00701 25.1408 3.00701C23.7008 3.00701 22.5508 1.84701 22.5508 0.417007C22.5508 -1.01299 23.7108 -2.18299 25.1408 -2.18299C26.5708 -2.18299 27.7408 -1.02299 27.7408 0.417007ZM28.8108 0.437008C28.8108 -1.57299 27.1808 -3.19299 25.1808 -3.19299C23.1808 -3.19299 21.5508 -1.56299 21.5508 0.437008C21.5508 2.43701 23.1808 4.06701 25.1808 4.06701C27.1808 4.06701 28.8108 2.43701 28.8108 0.437008Z" fill="#FCE8DC"/>
<path d="M26.6973 0.417046C26.6973 1.27705 25.9973 1.97705 25.1473 1.97705C24.2973 1.97705 23.5873 1.27705 23.5873 0.417046C23.5873 -0.442954 24.2873 -1.14296 25.1473 -1.14296C26.0073 -1.14296 26.6973 -0.442954 26.6973 0.417046ZM27.7073 0.437046C27.7073 -0.992954 26.5473 -2.15295 25.1173 -2.15295C23.6873 -2.15295 22.5273 -0.992954 22.5273 0.437046C22.5273 1.86705 23.6873 3.03704 25.1173 3.03704C26.5473 3.03704 27.7073 1.87705 27.7073 0.437046Z" fill="#FFEFE6"/>
<path d="M25.6711 0.417015L25.1511 0.937016L24.6311 0.417015L25.1511 -0.102985L25.6711 0.417015ZM26.7411 0.377014C26.7411 -0.482986 26.0411 -1.18298 25.1811 -1.18298C24.3211 -1.18298 23.6211 -0.482986 23.6211 0.377014C23.6211 1.23701 24.3211 1.93702 25.1811 1.93702C26.0411 1.93702 26.7411 1.23701 26.7411 0.377014Z" fill="#FFF4EE"/>
<path d="M25.6277 0.436993L25.1177 -0.0830078L24.5977 0.436993L25.1177 0.956993L25.6277 0.436993Z" fill="white"/>
</g>
<mask id="mask2_0_48" style="mask-type:luminance" maskUnits="userSpaceOnUse" x="3" y="5" width="42" height="39">
<path d="M33.3195 5.29688C31.5995 5.47688 29.6995 5.94688 27.6895 6.74688C25.7295 7.51688 23.6295 8.61688 21.4895 10.0069C19.1195 11.5469 16.8995 13.3269 14.8495 15.2569C12.8295 17.1569 11.0195 19.2269 9.45953 21.3369C7.88953 23.4669 6.60953 25.6369 5.65953 27.7669C4.70953 29.9269 4.11953 32.0669 3.99953 34.0269C3.96953 34.7369 3.99953 35.4469 4.08953 36.0769C4.17953 36.7269 4.31953 37.3269 4.55953 37.8569C4.76953 38.3869 5.05953 38.8969 5.41953 39.3369C5.74953 39.7769 6.15953 40.1369 6.63953 40.4669L8.26953 41.5069L9.80953 42.3369L11.4995 43.0769L12.5095 43.4269C11.9995 43.2169 11.4995 42.9469 11.0895 42.6569C10.5195 42.2469 10.0495 41.7369 9.65953 41.1469C9.26953 40.5569 9.00953 39.8769 8.82953 39.1369C8.64953 38.3969 8.55953 37.5969 8.58953 36.6769C8.64953 34.8369 9.15953 32.8569 9.98953 30.8069C10.8495 28.8169 11.9995 26.7769 13.4595 24.7869C14.8795 22.7969 16.5695 20.8769 18.4695 19.0969C20.3395 17.2869 22.4395 15.6569 24.6695 14.2369C26.8995 12.8169 29.0595 11.7469 31.0995 11.0369C33.1495 10.3269 35.8795 9.78688 37.5995 9.81688C39.3495 9.81688 40.8895 10.2069 42.0795 11.0069C43.3295 11.8069 43.5595 13.1769 43.9495 14.8369L44.5995 14.7169L42.5195 9.26688L41.9895 8.07688C41.2795 6.86688 40.0895 6.05688 38.7595 5.58688C37.9595 5.28688 36.7995 5.17688 35.6495 5.17688C34.8495 5.17688 34.0495 5.23688 33.3395 5.32688" fill="white"/>
</mask>
<g mask="url(#mask2_0_48)">
<path d="M74.6278 5.47701C74.6278 29.047 55.5078 48.177 31.9578 48.177C8.40781 48.177 -10.7222 29.047 -10.7222 5.47701C-10.7222 -18.093 8.39781 -37.223 31.9478 -37.223C55.4978 -37.223 74.6178 -18.093 74.6178 5.47701M75.6578 5.41701C75.6578 -18.723 56.0778 -38.313 31.9578 -38.313C7.83781 -38.313 -11.7422 -18.713 -11.7422 5.41701C-11.7422 29.547 7.83781 49.147 31.9578 49.147C56.0778 49.147 75.6578 29.557 75.6578 5.41701Z" fill="#E43C13"/>
<path d="M73.5991 5.47711C73.5991 28.4871 54.9391 47.1471 31.9491 47.1471C8.95906 47.1471 -9.69094 28.4871 -9.69094 5.47711C-9.69094 -17.5329 8.95906 -36.1829 31.9491 -36.1829C54.9391 -36.1829 73.5991 -17.5129 73.5991 5.48711M74.6391 5.48711C74.6391 -18.0829 55.5191 -37.2129 31.9591 -37.2129C8.39906 -37.2129 -10.7109 -18.0829 -10.7109 5.48711C-10.7109 29.0571 8.40906 48.1871 31.9591 48.1871C55.5091 48.1871 74.6391 29.0571 74.6391 5.48711Z" fill="#EE3430"/>
<path d="M72.5664 5.47713C72.5664 27.9171 54.3664 46.1171 31.9464 46.1171C9.52641 46.1171 -8.66359 27.9171 -8.66359 5.47713C-8.66359 -16.9629 9.52641 -35.1629 31.9564 -35.1629C54.3864 -35.1629 72.5764 -16.9529 72.5764 5.47713M73.6164 5.47713C73.6164 -17.5229 54.9564 -36.1929 31.9764 -36.1929C8.99641 -36.1929 -9.68359 -17.5129 -9.68359 5.48713C-9.68359 28.4871 8.97641 47.1571 31.9664 47.1571C54.9564 47.1571 73.6064 28.4871 73.6064 5.48713" fill="#EF3E32"/>
<path d="M71.5478 5.47691C71.5478 27.3469 53.8078 45.0869 31.9578 45.0869C10.1078 45.0869 -7.64216 27.3469 -7.64216 5.47691C-7.64216 -16.3931 10.0978 -34.1331 31.9578 -34.1331C53.8178 -34.1331 71.5478 -16.3831 71.5478 5.47691ZM72.5878 5.47691C72.5878 -16.9631 54.3878 -35.1631 31.9678 -35.1631C9.54784 -35.1631 -8.65216 -16.9531 -8.65216 5.48691C-8.65216 27.9269 9.54784 46.1269 31.9678 46.1269C54.3878 46.1269 72.5878 27.9269 72.5878 5.48691" fill="#EF4436"/>
<path d="M70.5189 5.47719C70.5189 26.7772 53.2389 44.0572 31.9589 44.0572C10.6789 44.0572 -6.61109 26.7772 -6.61109 5.47719C-6.61109 -15.8228 10.6689 -33.1028 31.9589 -33.1028C53.2489 -33.1028 70.5189 -15.8128 70.5189 5.47719ZM71.5589 5.47719C71.5589 -16.3928 53.8189 -34.1328 31.9689 -34.1328C10.1189 -34.1328 -7.62109 -16.3828 -7.62109 5.48719C-7.62109 27.3572 10.1089 45.0972 31.9689 45.0972C53.8289 45.0972 71.5589 27.3472 71.5589 5.48719" fill="#EF4C3A"/>
<path d="M69.4859 5.47697C69.4859 26.207 52.6659 43.037 31.9559 43.037C11.2459 43.037 -5.58406 26.217 -5.58406 5.47697C-5.58406 -15.263 11.2259 -32.073 31.9459 -32.073C52.6659 -32.073 69.4759 -15.253 69.4759 5.47697M70.4559 5.47697C70.4559 -15.823 53.1759 -33.103 31.8959 -33.103C10.6159 -33.103 -6.66406 -15.813 -6.66406 5.48697C-6.66406 26.787 10.6159 44.077 31.8959 44.077C53.1759 44.077 70.4559 26.787 70.4559 5.48697" fill="#EE533F"/>
<path d="M68.4597 5.47701C68.4597 25.647 52.0997 42.007 31.9497 42.007C11.7997 42.007 -4.55031 25.647 -4.55031 5.47701C-4.55031 -14.693 11.7997 -31.043 31.9497 -31.043C52.0997 -31.043 68.4597 -14.683 68.4597 5.48701M69.4997 5.48701C69.4997 -15.243 52.6897 -32.063 31.9697 -32.063C11.2497 -32.063 -5.57031 -15.243 -5.57031 5.48701C-5.57031 26.217 11.2497 43.037 31.9697 43.037C52.6897 43.037 69.4997 26.217 69.4997 5.48701Z" fill="#ED5842"/>
<path d="M67.427 5.47702C67.427 25.077 51.527 40.977 31.947 40.977C12.367 40.977 -3.52297 25.077 -3.52297 5.47702C-3.52297 -14.123 12.367 -30.013 31.947 -30.013C51.527 -30.013 67.427 -14.113 67.427 5.47702ZM68.467 5.47702C68.467 -14.683 52.107 -31.053 31.957 -31.053C11.807 -31.053 -4.54297 -14.683 -4.54297 5.48702C-4.54297 25.657 11.817 42.017 31.967 42.017C52.117 42.017 68.477 25.657 68.477 5.48702" fill="#EF6047"/>
<path d="M66.3983 5.47706C66.3983 24.5071 50.9583 39.9471 31.9483 39.9471C12.9383 39.9471 -2.49172 24.5071 -2.49172 5.47706C-2.49172 -13.5529 12.9383 -28.9829 31.9483 -28.9829C50.9583 -28.9829 66.3983 -13.5429 66.3983 5.48706M67.4383 5.48706C67.4383 -14.1129 51.5483 -30.0129 31.9583 -30.0129C12.3683 -30.0129 -3.51172 -14.1129 -3.51172 5.48706C-3.51172 25.0871 12.3783 40.9871 31.9683 40.9871C51.5583 40.9871 67.4483 25.0871 67.4483 5.48706" fill="#EF644A"/>
<path d="M65.3795 5.47709C65.3795 23.9371 50.4095 38.9171 31.9595 38.9171C13.5095 38.9171 -1.47047 23.9371 -1.47047 5.47709C-1.47047 -12.9829 13.5095 -27.9529 31.9495 -27.9529C50.3895 -27.9529 65.3695 -12.9729 65.3695 5.48709M66.4095 5.48709C66.4095 -13.5429 50.9695 -28.9829 31.9595 -28.9829C12.9495 -28.9829 -2.48047 -13.5429 -2.48047 5.48709C-2.48047 24.5171 12.9495 39.9571 31.9695 39.9571C50.9895 39.9571 66.4195 24.5171 66.4195 5.48709" fill="#F0694F"/>
<path d="M64.3491 5.47688C64.3491 23.3669 49.8391 37.8869 31.9591 37.8869C14.0791 37.8869 -0.440938 23.3769 -0.440938 5.47688C-0.440938 -12.4231 14.0691 -26.9231 31.9591 -26.9231C49.8491 -26.9231 64.3491 -12.4031 64.3491 5.48687M65.3891 5.48687C65.3891 -12.9731 50.4191 -27.9531 31.9691 -27.9531C13.5191 -27.9531 -1.46094 -12.9731 -1.46094 5.48687C-1.46094 23.9469 13.5091 38.9269 31.9591 38.9269C50.4091 38.9269 65.3791 23.9469 65.3791 5.48687" fill="#F06D52"/>
<path d="M63.3181 5.47689C63.3181 22.8069 49.2681 36.8569 31.9581 36.8569C14.6481 36.8569 0.588124 22.7969 0.588124 5.47689C0.588124 -11.8431 14.6381 -25.9031 31.9581 -25.9031C49.2781 -25.9031 63.3181 -11.8431 63.3181 5.47689ZM64.3581 5.47689C64.3581 -12.4131 49.8481 -26.9331 31.9681 -26.9331C14.0881 -26.9331 -0.421875 -12.4131 -0.421875 5.48689C-0.421875 23.3869 14.0881 37.8969 31.9681 37.8969C49.8481 37.8969 64.3581 23.3769 64.3581 5.48689" fill="#F07357"/>
<path d="M62.2891 5.47717C62.2891 22.2372 48.6991 35.8372 31.9491 35.8372C15.1991 35.8372 1.60906 22.2372 1.60906 5.47717C1.60906 -11.2828 15.2091 -24.8728 31.9491 -24.8728C48.6891 -24.8728 62.2891 -11.2728 62.2891 5.47717ZM63.2691 5.47717C63.2691 -11.8428 49.2191 -25.9028 31.8991 -25.9028C14.5791 -25.9028 0.539062 -11.8428 0.539062 5.47717C0.539062 22.7972 14.5891 36.8572 31.8991 36.8572C49.2091 36.8572 63.2691 22.7972 63.2691 5.47717Z" fill="#F1765B"/>
<path d="M61.2572 5.47696C61.2572 21.667 48.1272 34.797 31.9472 34.797C15.7672 34.797 2.63719 21.667 2.63719 5.47696C2.63719 -10.713 15.7672 -23.843 31.9472 -23.843C48.1272 -23.843 61.2572 -10.703 61.2572 5.47696ZM62.2972 5.47696C62.2972 -11.283 48.7072 -24.873 31.9572 -24.873C15.2072 -24.873 1.61719 -11.273 1.61719 5.47696C1.61719 22.227 15.2072 35.827 31.9572 35.827C48.7072 35.827 62.2972 22.227 62.2972 5.47696Z" fill="#F17A5F"/>
<path d="M60.2259 5.47698C60.2259 21.097 47.5559 33.777 31.9459 33.777C16.3359 33.777 3.66594 21.097 3.66594 5.47698C3.66594 -10.143 16.3359 -22.813 31.9459 -22.813C47.5559 -22.813 60.2259 -10.143 60.2259 5.47698ZM61.2059 5.47698C61.2059 -10.713 48.0759 -23.843 31.8959 -23.843C15.7159 -23.843 2.58594 -10.703 2.58594 5.47698C2.58594 21.657 15.7159 34.797 31.8959 34.797C48.0759 34.797 61.2059 21.657 61.2059 5.47698Z" fill="#F17F63"/>
<path d="M59.1997 5.477C59.1997 20.527 46.9897 32.747 31.9497 32.747C16.9097 32.747 4.69969 20.527 4.69969 5.477C4.69969 -9.573 16.9097 -21.783 31.9497 -21.783C46.9897 -21.783 59.1997 -9.563 59.1997 5.477ZM60.2397 5.477C60.2397 -10.143 47.5697 -22.823 31.9597 -22.823C16.3497 -22.823 3.67969 -10.143 3.67969 5.477C3.67969 21.097 16.3497 33.777 31.9597 33.777C47.5697 33.777 60.2397 21.097 60.2397 5.477Z" fill="#F28266"/>
<path d="M58.1788 5.47703C58.1788 19.967 46.4287 31.717 31.9587 31.717C17.4887 31.717 5.73875 19.967 5.73875 5.47703C5.73875 -9.01297 17.4887 -20.763 31.9587 -20.763C46.4287 -20.763 58.1788 -9.01297 58.1788 5.47703ZM59.2187 5.47703C59.2187 -9.57297 47.0088 -21.793 31.9688 -21.793C16.9288 -21.793 4.71875 -9.58297 4.71875 5.47703C4.71875 20.537 16.9288 32.747 31.9688 32.747C47.0088 32.747 59.2187 20.537 59.2187 5.47703Z" fill="#F2856A"/>
<path d="M57.1461 5.47706C57.1461 19.3971 45.8561 30.6871 31.9561 30.6871C18.0561 30.6871 6.75609 19.3971 6.75609 5.47706C6.75609 -8.44294 18.0461 -19.7329 31.9561 -19.7329C45.8661 -19.7329 57.1461 -8.44294 57.1461 5.47706ZM58.1861 5.47706C58.1861 -9.00294 46.4361 -20.7629 31.9661 -20.7629C17.4961 -20.7629 5.74609 -9.01294 5.74609 5.47706C5.74609 19.9671 17.4961 31.7171 31.9661 31.7171C46.4361 31.7171 58.1861 19.9671 58.1861 5.47706Z" fill="#F38A6D"/>
<path d="M56.1195 5.47709C56.1195 18.8271 45.2895 29.6571 31.9595 29.6571C18.6295 29.6571 7.78953 18.8271 7.78953 5.47709C7.78953 -7.87291 18.6095 -18.7029 31.9595 -18.7029C45.3095 -18.7029 56.1195 -7.87291 56.1195 5.47709ZM57.1595 5.47709C57.1595 -8.44291 45.8695 -19.7329 31.9695 -19.7329C18.0695 -19.7329 6.76953 -8.44291 6.76953 5.47709C6.76953 19.3971 18.0595 30.6871 31.9695 30.6871C45.8795 30.6871 57.1595 19.3971 57.1595 5.47709Z" fill="#F38C71"/>
<path d="M55.0869 5.47688C55.0869 18.2569 44.7269 28.6269 31.9469 28.6269C19.1669 28.6269 8.80688 18.2569 8.80688 5.47688C8.80688 -7.30312 19.1769 -17.6731 31.9469 -17.6731C44.7169 -17.6731 55.0869 -7.30312 55.0869 5.47688ZM56.1269 5.47688C56.1269 -7.87313 45.2969 -18.7031 31.9669 -18.7031C18.6369 -18.7031 7.79688 -7.87313 7.79688 5.47688C7.79688 18.8269 18.6269 29.6569 31.9669 29.6569C45.3069 29.6569 56.1269 18.8269 56.1269 5.47688Z" fill="#F39075"/>
<path d="M54.0564 5.47715C54.0564 17.6871 44.1464 27.5972 31.9464 27.5972C19.7464 27.5972 9.8364 17.6871 9.8364 5.47715C9.8364 -6.73285 19.7464 -16.6429 31.9464 -16.6429C44.1464 -16.6429 54.0564 -6.73285 54.0564 5.47715ZM55.0964 5.47715C55.0964 -7.30285 44.7364 -17.6729 31.9564 -17.6729C19.1764 -17.6729 8.81641 -7.30285 8.81641 5.47715C8.81641 18.2571 19.1864 28.6272 31.9564 28.6272C44.7264 28.6272 55.0964 18.2571 55.0964 5.47715Z" fill="#F29478"/>
<path d="M53.0291 5.47693C53.0291 17.1269 43.5791 26.5669 31.9491 26.5669C20.3191 26.5669 10.8691 17.1169 10.8691 5.47693C10.8691 -6.16307 20.3091 -15.6131 31.9491 -15.6131C43.5891 -15.6131 53.0291 -6.16307 53.0291 5.47693ZM54.0091 5.47693C54.0091 -6.73307 44.1091 -16.6431 31.8991 -16.6431C19.6891 -16.6431 9.78906 -6.73307 9.78906 5.47693C9.78906 17.6869 19.6991 27.5969 31.8991 27.5969C44.0991 27.5969 54.0091 17.6869 54.0091 5.47693Z" fill="#F3987D"/>
<path d="M52.0067 5.47696C52.0067 16.557 43.0167 25.547 31.9567 25.547C20.8967 25.547 11.9067 16.557 11.9067 5.47696C11.9067 -5.60304 20.8867 -14.583 31.9567 -14.583C43.0267 -14.583 52.0067 -5.59304 52.0067 5.47696ZM53.0467 5.47696C53.0467 -6.16304 43.5967 -15.613 31.9667 -15.613C20.3367 -15.613 10.8867 -6.16304 10.8867 5.47696C10.8867 17.117 20.3267 26.567 31.9667 26.567C43.6067 26.567 53.0467 17.117 53.0467 5.47696Z" fill="#F39D82"/>
<path d="M50.9778 5.47693C50.9778 15.9869 42.4578 24.5069 31.9578 24.5069C21.4578 24.5069 12.9378 15.9769 12.9378 5.47693C12.9378 -5.02307 21.4578 -13.5631 31.9578 -13.5631C42.4578 -13.5631 50.9778 -5.03307 50.9778 5.47693ZM52.0178 5.41693C52.0178 -5.66307 43.0278 -14.6431 31.9678 -14.6431C20.9078 -14.6431 11.9178 -5.65307 11.9178 5.41693C11.9178 16.4869 20.8978 25.4769 31.9678 25.4769C43.0378 25.4769 52.0178 16.4869 52.0178 5.41693Z" fill="#F4A086"/>
<path d="M49.9475 5.47701C49.9475 15.417 41.8875 23.487 31.9575 23.487C22.0275 23.487 13.9575 15.417 13.9575 5.47701C13.9575 -4.46299 22.0175 -12.523 31.9575 -12.523C41.8975 -12.523 49.9475 -4.46299 49.9475 5.47701ZM50.9875 5.47701C50.9875 -5.03299 42.4675 -13.563 31.9675 -13.563C21.4675 -13.563 12.9375 -5.03299 12.9375 5.47701C12.9375 15.987 21.4575 24.517 31.9675 24.517C42.4775 24.517 50.9875 15.987 50.9875 5.47701Z" fill="#F5A58A"/>
<path d="M48.9188 5.47705C48.9188 14.847 41.3187 22.4571 31.9587 22.4571C22.5987 22.4571 14.9888 14.847 14.9888 5.47705C14.9888 -3.89295 22.5887 -11.503 31.9587 -11.503C41.3287 -11.503 48.9188 -3.89295 48.9188 5.47705ZM49.9588 5.47705C49.9588 -4.46295 41.8988 -12.5229 31.9688 -12.5229C22.0387 -12.5229 13.9688 -4.46295 13.9688 5.47705C13.9688 15.417 22.0288 23.4771 31.9688 23.4771C41.9087 23.4771 49.9588 15.417 49.9588 5.47705Z" fill="#F7A88E"/>
<path d="M47.8978 5.47707C47.8978 14.2871 40.7578 21.4271 31.9578 21.4271C23.1578 21.4271 16.0178 14.2871 16.0178 5.47707C16.0178 -3.33293 23.1578 -10.4629 31.9578 -10.4629C40.7578 -10.4629 47.8978 -3.32293 47.8978 5.47707ZM48.9378 5.47707C48.9378 -3.89293 41.3378 -11.5029 31.9778 -11.5029C22.6178 -11.5029 15.0078 -3.90293 15.0078 5.47707C15.0078 14.8571 22.6078 22.4571 31.9778 22.4571C41.3478 22.4571 48.9378 14.8571 48.9378 5.47707Z" fill="#F6AC92"/>
<path d="M46.8595 5.47698C46.8595 13.717 40.1795 20.397 31.9495 20.397C23.7195 20.397 17.0395 13.717 17.0395 5.47698C17.0395 -2.76302 23.7295 -9.44302 31.9495 -9.44302C40.1695 -9.44302 46.8595 -2.76302 46.8595 5.47698ZM47.8995 5.47698C47.8995 -3.32302 40.7595 -10.473 31.9595 -10.473C23.1595 -10.473 16.0195 -3.32302 16.0195 5.47698C16.0195 14.277 23.1595 21.427 31.9595 21.427C40.7595 21.427 47.8995 14.277 47.8995 5.47698Z" fill="#F8B097"/>
<path d="M45.8386 5.47701C45.8386 13.147 39.6186 19.367 31.9586 19.367C24.2986 19.367 18.0686 13.147 18.0686 5.47701C18.0686 -2.19299 24.2886 -8.41299 31.9586 -8.41299C39.6286 -8.41299 45.8386 -2.19299 45.8386 5.47701ZM46.8786 5.47701C46.8786 -2.76299 40.1986 -9.44299 31.9686 -9.44299C23.7386 -9.44299 17.0586 -2.76299 17.0586 5.47701C17.0586 13.717 23.7386 20.397 31.9686 20.397C40.1986 20.397 46.8786 13.717 46.8786 5.47701Z" fill="#F6B49B"/>
<path d="M44.8081 5.47704C44.8081 12.577 39.0481 18.337 31.9581 18.337C24.8681 18.337 19.1081 12.577 19.1081 5.47704C19.1081 -1.62296 24.8681 -7.38297 31.9581 -7.38297C39.0481 -7.38297 44.8081 -1.62296 44.8081 5.47704ZM45.8481 5.47704C45.8481 -2.19296 39.6281 -8.41296 31.9681 -8.41296C24.3081 -8.41296 18.0781 -2.19296 18.0781 5.47704C18.0781 13.147 24.2981 19.367 31.9681 19.367C39.6381 19.367 45.8481 13.147 45.8481 5.47704Z" fill="#F9B9A2"/>
<path d="M43.7769 5.47707C43.7769 12.0071 38.4769 17.3071 31.9569 17.3071C25.4369 17.3071 20.1269 12.0071 20.1269 5.47707C20.1269 -1.05293 25.4269 -6.35294 31.9569 -6.35294C38.4869 -6.35294 43.7769 -1.05293 43.7769 5.47707ZM44.7569 5.47707C44.7569 -1.62293 38.9969 -7.38293 31.8969 -7.38293C24.7969 -7.38293 19.0469 -1.62293 19.0469 5.47707C19.0469 12.5771 24.8069 18.3371 31.8969 18.3371C38.9869 18.3371 44.7569 12.5771 44.7569 5.47707Z" fill="#F8BEA7"/>
<path d="M42.7489 5.47697C42.7489 11.447 37.9189 16.287 31.9489 16.287C25.9789 16.287 21.1489 11.447 21.1489 5.47697C21.1489 -0.493025 25.9889 -5.32302 31.9489 -5.32302C37.9089 -5.32302 42.7489 -0.483026 42.7489 5.47697ZM43.7889 5.47697C43.7889 -1.05303 38.4889 -6.35303 31.9589 -6.35303C25.4289 -6.35303 20.1289 -1.05303 20.1289 5.47697C20.1289 12.007 25.4289 17.307 31.9589 17.307C38.4889 17.307 43.7889 12.007 43.7889 5.47697Z" fill="#FAC3AD"/>
<path d="M41.7178 5.477C41.7178 10.877 37.3378 15.247 31.9478 15.247C26.5578 15.247 22.1778 10.867 22.1778 5.477C22.1778 0.0870013 26.5578 -4.303 31.9478 -4.303C37.3378 -4.303 41.7178 0.0770011 41.7178 5.477ZM42.7578 5.477C42.7578 -0.482999 37.9178 -5.323 31.9678 -5.323C26.0178 -5.323 21.1678 -0.482999 21.1678 5.477C21.1678 11.437 26.0078 16.277 31.9678 16.277C37.9278 16.277 42.7578 11.437 42.7578 5.477Z" fill="#F8C7B2"/>
<path d="M40.6992 5.47703C40.6992 10.307 36.7792 14.227 31.9592 14.227C27.1392 14.227 23.2192 10.307 23.2192 5.47703C23.2192 0.647032 27.1292 -3.26297 31.9592 -3.26297C36.7892 -3.26297 40.6992 0.657032 40.6992 5.47703ZM41.7392 5.47703C41.7392 0.0770316 37.3592 -4.29297 31.9692 -4.29297C26.5792 -4.29297 22.1992 0.0870318 22.1992 5.47703C22.1992 10.867 26.5792 15.247 31.9692 15.247C37.3592 15.247 41.7392 10.867 41.7392 5.47703Z" fill="#F9CDB8"/>
<path d="M39.6666 5.47705C39.6666 9.73705 36.2066 13.197 31.9566 13.197C27.7066 13.197 24.2466 9.73705 24.2466 5.47705C24.2466 1.21705 27.7066 -2.24295 31.9566 -2.24295C36.2066 -2.24295 39.6666 1.21705 39.6666 5.47705ZM40.7066 5.47705C40.7066 0.647051 36.7966 -3.27295 31.9666 -3.27295C27.1366 -3.27295 23.2266 0.647051 23.2266 5.47705C23.2266 10.3071 27.1366 14.2271 31.9666 14.2271C36.7966 14.2271 40.7066 10.3071 40.7066 5.47705Z" fill="#FBD1BE"/>
<path d="M38.6361 5.47696C38.6361 9.16696 35.6361 12.167 31.9561 12.167C28.2761 12.167 25.2661 9.17696 25.2661 5.47696C25.2661 1.77696 28.2661 -1.21304 31.9561 -1.21304C35.6461 -1.21304 38.6361 1.78696 38.6361 5.47696ZM39.6761 5.47696C39.6761 1.21696 36.2161 -2.24304 31.9661 -2.24304C27.7161 -2.24304 24.2461 1.21696 24.2461 5.47696C24.2461 9.73696 27.7061 13.187 31.9661 13.187C36.2261 13.187 39.6761 9.72696 39.6761 5.47696Z" fill="#FBD5C4"/>
<path d="M37.6073 5.47699C37.6073 8.60699 35.0673 11.137 31.9473 11.137C28.8273 11.137 26.2873 8.60699 26.2873 5.47699C26.2873 2.34699 28.8273 -0.18301 31.9473 -0.18301C35.0673 -0.18301 37.6073 2.34699 37.6073 5.47699ZM38.6473 5.47699C38.6473 1.78699 35.6473 -1.21301 31.9673 -1.21301C28.2873 -1.21301 25.2773 1.77699 25.2773 5.47699C25.2773 9.17699 28.2773 12.167 31.9673 12.167C35.6573 12.167 38.6473 9.17699 38.6473 5.47699Z" fill="#FDDBCA"/>
<path d="M36.5783 5.47702C36.5783 8.03702 34.5083 10.107 31.9483 10.107C29.3883 10.107 27.3183 8.02702 27.3183 5.47702C27.3183 2.92702 29.3883 0.847015 31.9483 0.847015C34.5083 0.847015 36.5783 2.92702 36.5783 5.47702ZM37.5583 5.47702C37.5583 2.35702 35.0283 -0.182983 31.8983 -0.182983C28.7683 -0.182983 26.2383 2.35702 26.2383 5.47702C26.2383 8.59702 28.7783 11.137 31.8983 11.137C35.0183 11.137 37.5583 8.59702 37.5583 5.47702Z" fill="#FDDFD1"/>
<path d="M35.5481 5.47705C35.5481 7.46705 33.9381 9.07705 31.9481 9.07705C29.9581 9.07705 28.3481 7.46705 28.3481 5.47705C28.3481 3.48705 29.9581 1.87704 31.9481 1.87704C33.9381 1.87704 35.5481 3.49705 35.5481 5.47705ZM36.5881 5.47705C36.5881 2.91705 34.5181 0.847046 31.9581 0.847046C29.3981 0.847046 27.3281 2.91705 27.3281 5.47705C27.3281 8.03705 29.3981 10.107 31.9581 10.107C34.5181 10.107 36.5881 8.03705 36.5881 5.47705Z" fill="#FCE4D7"/>
<path d="M34.5169 5.47696C34.5169 6.89696 33.3669 8.04696 31.9469 8.04696C30.5269 8.04696 29.3769 6.89696 29.3769 5.47696C29.3769 4.05696 30.5269 2.90696 31.9469 2.90696C33.3669 2.90696 34.5169 4.05696 34.5169 5.47696ZM35.4969 5.47696C35.4969 3.48696 33.8869 1.87695 31.8969 1.87695C29.9069 1.87695 28.2969 3.49696 28.2969 5.47696C28.2969 7.45696 29.9169 9.07695 31.8969 9.07695C33.8769 9.07695 35.4969 7.46696 35.4969 5.47696Z" fill="#FCE9E0"/>
<path d="M33.4984 5.47698C33.4984 6.32698 32.8084 7.01698 31.9584 7.01698C31.1084 7.01698 30.4084 6.32698 30.4084 5.47698C30.4084 4.62698 31.0984 3.93698 31.9584 3.93698C32.8184 3.93698 33.4984 4.62698 33.4984 5.47698ZM34.5384 5.47698C34.5384 4.05698 33.3884 2.90698 31.9684 2.90698C30.5484 2.90698 29.3984 4.05698 29.3984 5.47698C29.3984 6.89698 30.5484 8.04698 31.9684 8.04698C33.3884 8.04698 34.5384 6.89698 34.5384 5.47698Z" fill="#FEEFE7"/>
<path d="M32.4697 5.47701L31.9597 5.99701L31.4497 5.47701L31.9597 4.96701L32.4697 5.47701ZM33.5097 5.47701C33.5097 4.62701 32.8197 3.93701 31.9697 3.93701C31.1197 3.93701 30.4297 4.62701 30.4297 5.47701C30.4297 6.32701 31.1197 7.01701 31.9697 7.01701C32.8197 7.01701 33.5097 6.32701 33.5097 5.47701Z" fill="#FFF5EF"/>
<path d="M32.4792 5.48704L31.9692 4.96704L31.4492 5.48704L31.9692 5.99704L32.4792 5.48704Z" fill="white"/>
</g>
<mask id="mask3_0_48" style="mask-type:luminance" maskUnits="userSpaceOnUse" x="13" y="16" width="35" height="32">
<path d="M29.769 46.2768C30.069 46.1568 30.389 46.0468 30.689 45.9268L29.769 46.2768ZM34.809 17.1968C32.819 17.8468 30.689 18.8568 28.529 20.2168C26.359 21.5468 24.349 23.0968 22.539 24.7868C20.729 26.4768 19.129 28.3168 17.769 30.1568C16.439 32.0568 15.339 33.9868 14.569 35.8468C13.829 37.7468 13.409 39.5868 13.439 41.3068C13.439 42.3768 13.619 43.3268 13.969 44.1268C14.299 44.9568 14.799 45.6668 15.449 46.2268C16.099 46.7968 16.879 47.2668 17.819 47.4768C18.769 47.6868 19.709 47.8568 20.929 47.9168L21.199 47.8868C24.229 47.7868 26.379 47.3568 29.269 46.4668L29.779 46.2868C28.589 46.6768 27.469 46.9068 26.429 47.0268C25.039 47.1468 23.789 47.0268 22.779 46.6668C21.739 46.3168 20.909 45.6868 20.349 44.8868C19.789 44.0868 19.429 43.0768 19.369 41.8668C19.309 40.5068 19.609 39.0168 20.199 37.4768C20.759 35.9668 21.589 34.4168 22.689 32.9068C23.759 31.3968 25.029 29.9168 26.489 28.5768C27.939 27.2168 29.539 25.9668 31.289 24.8968C33.039 23.8268 34.759 23.0568 36.359 22.5568C37.989 22.0568 39.529 21.8168 40.859 21.9068C42.219 21.9668 43.409 22.3268 44.329 23.0068C45.249 23.6868 45.929 24.6668 46.199 25.9668C46.349 25.5468 47.209 25.2568 47.329 24.8368C47.449 24.4468 47.539 24.0368 47.629 23.6168C47.719 23.1968 47.959 20.9468 47.979 20.5368L47.769 19.8268C47.179 18.6668 46.519 18.2268 45.519 17.5468C44.359 16.7768 42.139 16.2668 40.419 16.2468H40.179C38.549 16.2468 36.739 16.5468 34.809 17.1968Z" fill="white"/>
</mask>
<g mask="url(#mask3_0_48)">
<path d="M73.6103 16.4869C73.6103 36.5969 57.3003 52.9069 37.2103 52.9069C17.1203 52.9069 0.810313 36.5969 0.810313 16.4869C0.810313 -3.62315 17.1203 -19.9331 37.2103 -19.9331C57.3003 -19.9331 73.6103 -3.61315 73.6103 16.4869ZM74.6803 16.4769C74.6803 -4.19314 57.9103 -20.9731 37.2503 -20.9731C16.5903 -20.9731 -0.179688 -4.19314 -0.179688 16.4769C-0.179688 37.1469 16.5903 53.9268 37.2503 53.9268C57.9103 53.9268 74.6803 37.1469 74.6803 16.4769Z" fill="#E43C13"/>
<path d="M72.5912 16.4869C72.5912 36.0269 56.7412 51.8869 37.2113 51.8869C17.6812 51.8869 1.83125 36.0269 1.83125 16.4869C1.83125 -3.05312 17.6812 -18.9131 37.2113 -18.9131C56.7412 -18.9131 72.5912 -3.05312 72.5912 16.4869ZM73.5912 16.4769C73.5912 -3.63312 57.2813 -19.9431 37.1913 -19.9431C17.1013 -19.9431 0.78125 -3.63312 0.78125 16.4769C0.78125 36.5869 17.0913 52.8969 37.1913 52.8969C57.2913 52.8969 73.5912 36.5769 73.5912 16.4769Z" fill="#EF3730"/>
<path d="M71.5611 16.4869C71.5611 35.4569 56.1711 50.8569 37.2111 50.8569C18.2511 50.8569 2.86109 35.4569 2.86109 16.4869C2.86109 -2.4831 18.2511 -17.8831 37.2111 -17.8831C56.1711 -17.8831 71.5611 -2.4831 71.5611 16.4869ZM72.6211 16.4769C72.6211 -3.0631 56.7711 -18.9231 37.2411 -18.9231C17.7111 -18.9231 1.87109 -3.0631 1.87109 16.4769C1.87109 36.0169 17.7211 51.8769 37.2511 51.8769C56.7811 51.8769 72.6311 36.0169 72.6311 16.4769" fill="#EF4033"/>
<path d="M70.542 16.4869C70.542 34.8969 55.612 49.8369 37.212 49.8369C18.812 49.8369 3.88203 34.8969 3.88203 16.4869C3.88203 -1.92307 18.812 -16.8631 37.212 -16.8631C55.612 -16.8631 70.542 -1.92307 70.542 16.4869ZM71.542 16.4769C71.542 -2.49306 56.152 -17.8931 37.192 -17.8931C18.232 -17.8931 2.83203 -2.49306 2.83203 16.4769C2.83203 35.4469 18.222 50.8469 37.192 50.8469C56.162 50.8469 71.542 35.4469 71.542 16.4769Z" fill="#EE4939"/>
<path d="M69.5119 16.487C69.5119 34.327 55.0419 48.807 37.2119 48.807C19.3819 48.807 4.91187 34.327 4.91187 16.487C4.91187 -1.35299 19.3819 -15.833 37.2119 -15.833C55.0419 -15.833 69.5119 -1.35299 69.5119 16.487ZM70.5719 16.537C70.5719 -1.87299 55.6419 -16.813 37.2419 -16.813C18.8419 -16.813 3.92188 -1.87299 3.92188 16.537C3.92188 34.947 18.8519 49.887 37.2519 49.887C55.6519 49.887 70.5819 34.947 70.5819 16.537" fill="#EE503D"/>
<path d="M68.4906 16.4867C68.4906 33.7667 54.4806 47.7867 37.2106 47.7867C19.9406 47.7867 5.93062 33.7667 5.93062 16.4867C5.93062 -0.793261 19.9406 -14.8033 37.2106 -14.8033C54.4806 -14.8033 68.4906 -0.78326 68.4906 16.4867ZM69.4906 16.4767C69.4906 -1.36326 55.0206 -15.8433 37.1906 -15.8433C19.3606 -15.8433 4.89062 -1.36326 4.89062 16.4767C4.89062 34.3167 19.3606 48.7967 37.1906 48.7967C55.0206 48.7967 69.4906 34.3167 69.4906 16.4767Z" fill="#ED5742"/>
<path d="M67.4588 16.4868C67.4588 33.1968 53.9087 46.7568 37.2087 46.7568C20.5087 46.7568 6.95875 33.1968 6.95875 16.4868C6.95875 -0.223173 20.5087 -13.7832 37.2087 -13.7832C53.9087 -13.7832 67.4588 -0.223173 67.4588 16.4868ZM68.5288 16.5368C68.5288 -0.733175 54.5187 -14.7532 37.2487 -14.7532C19.9787 -14.7532 5.96875 -0.733175 5.96875 16.5368C5.96875 33.8068 19.9787 47.8268 37.2487 47.8268C54.5187 47.8268 68.5288 33.8068 68.5288 16.5368Z" fill="#EF6047"/>
<path d="M66.4414 16.4869C66.4414 32.6269 53.3514 45.7269 37.2114 45.7269C21.0714 45.7269 7.98141 32.6269 7.98141 16.4869C7.98141 0.346909 21.0714 -12.7531 37.2114 -12.7531C53.3514 -12.7531 66.4414 0.346909 66.4414 16.4869ZM67.4414 16.4769C67.4414 -0.233089 53.8914 -13.7931 37.1914 -13.7931C20.4914 -13.7931 6.94141 -0.233089 6.94141 16.4769C6.94141 33.1869 20.4914 46.7469 37.1914 46.7469C53.8914 46.7469 67.4414 33.1869 67.4414 16.4769Z" fill="#EF644A"/>
<path d="M65.4109 16.4869C65.4109 32.0669 52.7809 44.7069 37.2109 44.7069C21.6409 44.7069 9.01094 32.0669 9.01094 16.4869C9.01094 0.906874 21.6409 -11.7331 37.2109 -11.7331C52.7809 -11.7331 65.4109 0.906874 65.4109 16.4869ZM66.4209 16.5369C66.4209 0.396873 53.3309 -12.7031 37.1909 -12.7031C21.0509 -12.7031 7.96094 0.396873 7.96094 16.5369C7.96094 32.6769 21.0509 45.7769 37.1909 45.7769C53.3309 45.7769 66.4209 32.6769 66.4209 16.5369Z" fill="#F06B50"/>
<path d="M64.3803 16.4868C64.3803 31.4968 52.2103 43.6768 37.2103 43.6768C22.2103 43.6768 10.0303 31.4968 10.0303 16.4868C10.0303 1.47684 22.2103 -10.7032 37.2103 -10.7032C52.2103 -10.7032 64.3803 1.47684 64.3803 16.4868ZM65.3803 16.4768C65.3803 0.896837 52.7503 -11.7432 37.1803 -11.7432C21.6103 -11.7432 8.98029 0.896837 8.98029 16.4768C8.98029 32.0568 21.6103 44.6968 37.1803 44.6968C52.7503 44.6968 65.3803 32.0568 65.3803 16.4768Z" fill="#F07055"/>
<path d="M63.3595 16.4869C63.3595 30.9269 51.6495 42.6569 37.2095 42.6569C22.7695 42.6569 11.0595 30.9369 11.0595 16.4869C11.0595 2.03686 22.7795 -9.67314 37.2095 -9.67314C51.6395 -9.67314 63.3595 2.04686 63.3595 16.4869ZM64.3695 16.4769C64.3695 1.46687 52.1995 -10.7131 37.1995 -10.7131C22.1995 -10.7131 10.0195 1.46687 10.0195 16.4769C10.0195 31.4869 22.1895 43.6669 37.1995 43.6669C52.2095 43.6669 64.3695 31.4869 64.3695 16.4769Z" fill="#F1755A"/>
<path d="M62.3416 16.4869C62.3416 30.3669 51.0916 41.6269 37.2216 41.6269C23.3516 41.6269 12.1016 30.3669 12.1016 16.4869C12.1016 2.60689 23.3616 -8.6531 37.2216 -8.6531C51.0816 -8.6531 62.3416 2.60689 62.3416 16.4869ZM63.4016 16.4769C63.4016 2.0369 51.6816 -9.68311 37.2516 -9.68311C22.8216 -9.68311 11.1016 2.0369 11.1016 16.4769C11.1016 30.9169 22.8116 42.6369 37.2516 42.6369C51.6916 42.6369 63.4016 30.9169 63.4016 16.4769Z" fill="#F17A5F"/>
<path d="M61.312 16.4869C61.312 29.7969 50.522 40.6069 37.222 40.6069C23.922 40.6069 13.122 29.7969 13.122 16.4869C13.122 3.17691 23.922 -7.62309 37.222 -7.62309C50.522 -7.62309 61.312 3.17691 61.312 16.4869ZM62.322 16.4769C62.322 2.59692 51.072 -8.66309 37.202 -8.66309C23.332 -8.66309 12.082 2.59692 12.082 16.4769C12.082 30.3569 23.342 41.6169 37.202 41.6169C51.062 41.6169 62.322 30.3569 62.322 16.4769Z" fill="#F17F63"/>
<path d="M60.2919 16.4868C60.2919 29.2268 49.9619 39.5768 37.2219 39.5768C24.4819 39.5768 14.1519 29.2268 14.1519 16.4868C14.1519 3.74682 24.4919 -6.59318 37.2219 -6.59318C49.9519 -6.59318 60.2919 3.74682 60.2919 16.4868ZM61.3619 16.4768C61.3619 3.16682 50.5619 -7.63318 37.2619 -7.63318C23.9619 -7.63318 13.1719 3.16682 13.1719 16.4768C13.1719 29.7868 23.9619 40.5868 37.2619 40.5868C50.5619 40.5868 61.3619 29.7868 61.3619 16.4768Z" fill="#F28366"/>
<path d="M59.2589 16.4869C59.2589 28.6669 49.3889 38.5469 37.2189 38.5469C25.0489 38.5469 15.1689 28.6569 15.1689 16.4869C15.1689 4.31685 25.0489 -5.57315 37.2189 -5.57315C49.3889 -5.57315 59.2589 4.30685 59.2589 16.4869ZM60.2689 16.4769C60.2689 3.73685 49.9289 -6.60315 37.1989 -6.60315C24.4689 -6.60315 14.1289 3.73685 14.1289 16.4769C14.1289 29.2169 24.4689 39.5668 37.1989 39.5668C49.9289 39.5668 60.2689 29.2269 60.2689 16.4769Z" fill="#F2876B"/>
<path d="M58.2292 16.4869C58.2292 28.0969 48.8092 37.5269 37.2092 37.5269C25.6092 37.5269 16.1892 28.0969 16.1892 16.4869C16.1892 4.87687 25.6092 -4.54313 37.2092 -4.54313C48.8092 -4.54313 58.2292 4.87687 58.2292 16.4869ZM59.2992 16.4769C59.2992 4.29687 49.4192 -5.58313 37.2492 -5.58313C25.0792 -5.58313 15.1992 4.29687 15.1992 16.4769C15.1992 28.6569 25.0692 38.5369 37.2492 38.5369C49.4292 38.5369 59.2992 28.6569 59.2992 16.4769Z" fill="#F38B6F"/>
<path d="M57.2119 16.4869C57.2119 27.5269 48.2519 36.4969 37.2119 36.4969C26.1719 36.4969 17.2119 27.5369 17.2119 16.4869C17.2119 5.4369 26.1719 -3.5231 37.2119 -3.5231C48.2519 -3.5231 57.2119 5.4369 57.2119 16.4869ZM58.2119 16.4769C58.2119 4.8669 48.7919 -4.5531 37.1919 -4.5531C25.5919 -4.5531 16.1719 4.8669 16.1719 16.4769C16.1719 28.0869 25.5919 37.5069 37.1919 37.5069C48.7919 37.5069 58.2119 28.0869 58.2119 16.4769Z" fill="#F38F73"/>
<path d="M56.18 16.4869C56.18 26.9669 47.68 35.4669 37.21 35.4669C26.74 35.4669 18.24 26.9569 18.24 16.4869C18.24 6.01685 26.74 -2.49314 37.21 -2.49314C47.68 -2.49314 56.18 6.01685 56.18 16.4869ZM57.25 16.5369C57.25 5.49685 48.29 -3.47314 37.25 -3.47314C26.21 -3.47314 17.25 5.48685 17.25 16.5369C17.25 27.5869 26.21 36.5469 37.25 36.5469C48.29 36.5469 57.25 27.5869 57.25 16.5369Z" fill="#F29379"/>
<path d="M55.1609 16.4868C55.1609 26.3968 47.1209 34.4468 37.2109 34.4468C27.3009 34.4468 19.2609 26.4068 19.2609 16.4868C19.2609 6.56682 27.3009 -1.46318 37.2109 -1.46318C47.1209 -1.46318 55.1609 6.57682 55.1609 16.4868ZM56.1609 16.4768C56.1609 5.99683 47.6609 -2.50317 37.1909 -2.50317C26.7209 -2.50317 18.2109 6.00683 18.2109 16.4768C18.2109 26.9468 26.7109 35.4568 37.1909 35.4568C47.6709 35.4568 56.1609 26.9468 56.1609 16.4768Z" fill="#F3987D"/>
<path d="M54.1291 16.4869C54.1291 25.8369 46.5491 33.4169 37.2091 33.4169C27.8691 33.4169 20.2891 25.8269 20.2891 16.4869C20.2891 7.1469 27.8691 -0.443096 37.2091 -0.443096C46.5491 -0.443096 54.1291 7.1369 54.1291 16.4869ZM55.1891 16.5369C55.1891 6.6269 47.1491 -1.4231 37.2391 -1.4231C27.3291 -1.4231 19.2891 6.6169 19.2891 16.5369C19.2891 26.4569 27.3291 34.4969 37.2391 34.4969C47.1491 34.4969 55.1891 26.4569 55.1891 16.5369Z" fill="#F39D83"/>
<path d="M53.1117 16.4869C53.1117 25.2669 45.9917 32.3869 37.2117 32.3869C28.4317 32.3869 21.3117 25.2669 21.3117 16.4869C21.3117 7.70687 28.4417 0.586876 37.2117 0.586876C45.9817 0.586876 53.1117 7.70687 53.1117 16.4869ZM54.1117 16.4769C54.1117 7.12687 46.5317 -0.453125 37.1917 -0.453125C27.8517 -0.453125 20.2617 7.12687 20.2617 16.4769C20.2617 25.8269 27.8417 33.4069 37.1917 33.4069C46.5417 33.4069 54.1117 25.8269 54.1117 16.4769Z" fill="#F5A287"/>
<path d="M52.0808 16.4869C52.0808 24.6969 45.4208 31.3669 37.2108 31.3669C29.0008 31.3669 22.3408 24.7069 22.3408 16.4869C22.3408 8.2669 29.0008 1.6069 37.2108 1.6069C45.4208 1.6069 52.0808 8.2769 52.0808 16.4869ZM53.0808 16.4769C53.0808 7.69691 45.9608 0.576904 37.1908 0.576904C28.4208 0.576904 21.3008 7.69691 21.3008 16.4769C21.3008 25.2569 28.4208 32.3769 37.1908 32.3769C45.9608 32.3769 53.0808 25.2569 53.0808 16.4769Z" fill="#F4A68B"/>
<path d="M51.0486 16.4868C51.0486 24.1368 44.8486 30.3368 37.2086 30.3368C29.5686 30.3368 23.3686 24.1268 23.3686 16.4868C23.3686 8.8468 29.5686 2.6368 37.2086 2.6368C44.8486 2.6368 51.0486 8.8368 51.0486 16.4868ZM52.0486 16.4768C52.0486 8.2668 45.3886 1.5968 37.1786 1.5968C28.9686 1.5968 22.3086 8.2568 22.3086 16.4768C22.3086 24.6968 28.9686 31.3568 37.1786 31.3568C45.3886 31.3568 52.0486 24.6968 52.0486 16.4768Z" fill="#F6AB91"/>
<path d="M50.0294 16.4868C50.0294 23.5668 44.2894 29.3168 37.2194 29.3168C30.1494 29.3168 24.3994 23.5668 24.3994 16.4868C24.3994 9.40683 30.1394 3.65683 37.2194 3.65683C44.2994 3.65683 50.0294 9.40683 50.0294 16.4868ZM51.0394 16.4768C51.0394 8.82683 44.8394 2.62683 37.1994 2.62683C29.5594 2.62683 23.3594 8.82683 23.3594 16.4768C23.3594 24.1268 29.5594 30.3268 37.1994 30.3268C44.8394 30.3268 51.0394 24.1268 51.0394 16.4768Z" fill="#F8B096"/>
<path d="M48.9994 16.4869C48.9994 22.9969 43.7194 28.2868 37.2094 28.2868C30.6994 28.2868 25.4194 22.9969 25.4194 16.4869C25.4194 9.97685 30.6994 4.68685 37.2094 4.68685C43.7194 4.68685 48.9994 9.96685 48.9994 16.4869ZM49.9994 16.4769C49.9994 9.39685 44.2594 3.64685 37.1794 3.64685C30.0994 3.64685 24.3594 9.39685 24.3594 16.4769C24.3594 23.5569 30.1094 29.3069 37.1794 29.3069C44.2494 29.3069 49.9994 23.5569 49.9994 16.4769Z" fill="#F6B49B"/>
<path d="M47.9803 16.4869C47.9803 22.4369 43.1603 27.2569 37.2103 27.2569C31.2603 27.2569 26.4403 22.4269 26.4403 16.4869C26.4403 10.5469 31.2703 5.71688 37.2103 5.71688C43.1503 5.71688 47.9803 10.5469 47.9803 16.4869ZM48.9903 16.4769C48.9903 9.96688 43.7003 4.67688 37.2003 4.67688C30.7003 4.67688 25.4103 9.96688 25.4103 16.4769C25.4103 22.9869 30.6903 28.2769 37.2003 28.2769C43.7103 28.2769 48.9903 22.9869 48.9903 16.4769Z" fill="#F9BAA3"/>
<path d="M46.9487 16.4869C46.9487 21.8669 42.5787 26.2369 37.2087 26.2369C31.8387 26.2369 27.4688 21.8669 27.4688 16.4869C27.4688 11.1069 31.8387 6.73691 37.2087 6.73691C42.5787 6.73691 46.9487 11.1069 46.9487 16.4869ZM48.0088 16.4769C48.0088 10.5269 43.1788 5.70691 37.2388 5.70691C31.2988 5.70691 26.4688 10.5369 26.4688 16.4769C26.4688 22.4169 31.2888 27.2469 37.2388 27.2469C43.1888 27.2469 48.0088 22.4169 48.0088 16.4769Z" fill="#F8C0A9"/>
<path d="M45.9309 16.4868C45.9309 21.2968 42.0309 25.2068 37.2209 25.2068C32.4109 25.2068 28.5009 21.2968 28.5009 16.4868C28.5009 11.6768 32.4109 7.76681 37.2209 7.76681C42.0309 7.76681 45.9309 11.6768 45.9309 16.4868ZM46.9409 16.4768C46.9409 11.0968 42.5709 6.72681 37.2009 6.72681C31.8309 6.72681 27.4609 11.0968 27.4609 16.4768C27.4609 21.8568 31.8309 26.2268 37.2009 26.2268C42.5709 26.2268 46.9409 21.8568 46.9409 16.4768Z" fill="#FAC6AF"/>
<path d="M44.8991 16.4869C44.8991 20.7369 41.4491 24.1869 37.2091 24.1869C32.9691 24.1869 29.5191 20.7369 29.5191 16.4869C29.5191 12.2369 32.9691 8.78689 37.2091 8.78689C41.4491 8.78689 44.8991 12.2369 44.8991 16.4869ZM45.9691 16.5369C45.9691 11.7269 42.0591 7.81689 37.2491 7.81689C32.4391 7.81689 28.5391 11.7269 28.5391 16.5369C28.5391 21.3469 32.4391 25.2569 37.2491 25.2569C42.0591 25.2569 45.9691 21.3469 45.9691 16.5369Z" fill="#F9CAB6"/>
<path d="M43.87 16.4869C43.87 20.1669 40.89 23.1569 37.21 23.1569C33.53 23.1569 30.54 20.1669 30.54 16.4869C30.54 12.8069 33.53 9.81686 37.21 9.81686C40.89 9.81686 43.87 12.8069 43.87 16.4869ZM44.88 16.4769C44.88 12.2269 41.43 8.77686 37.19 8.77686C32.95 8.77686 29.5 12.2269 29.5 16.4769C29.5 20.7269 32.95 24.1769 37.19 24.1769C41.43 24.1769 44.88 20.7269 44.88 16.4769Z" fill="#FBD0BD"/>
<path d="M42.8498 16.4868C42.8498 19.5968 40.3198 22.1268 37.2098 22.1268C34.0998 22.1268 31.5698 19.5968 31.5698 16.4868C31.5698 13.3768 34.0998 10.8468 37.2098 10.8468C40.3198 10.8468 42.8498 13.3768 42.8498 16.4868ZM43.9198 16.5368C43.9198 12.8568 40.9298 9.86682 37.2498 9.86682C33.5698 9.86682 30.5898 12.8568 30.5898 16.5368C30.5898 20.2168 33.5698 23.2068 37.2498 23.2068C40.9298 23.2068 43.9198 20.2168 43.9198 16.5368Z" fill="#FBD5C4"/>
<path d="M41.8208 16.4869C41.8208 19.0369 39.7508 21.1069 37.2108 21.1069C34.6708 21.1069 32.5908 19.0369 32.5908 16.4869C32.5908 13.9369 34.6608 11.8669 37.2108 11.8669C39.7608 11.8669 41.8208 13.9369 41.8208 16.4869ZM42.8308 16.4769C42.8308 13.3569 40.3008 10.8369 37.1908 10.8369C34.0808 10.8369 31.5508 13.3669 31.5508 16.4769C31.5508 19.5869 34.0808 22.1169 37.1908 22.1169C40.3008 22.1169 42.8308 19.5869 42.8308 16.4769Z" fill="#FDDBCB"/>
<path d="M40.7989 16.4869C40.7989 18.4669 39.1889 20.0769 37.2089 20.0769C35.2289 20.0769 33.6189 18.4669 33.6189 16.4869C33.6189 14.5069 35.2289 12.8969 37.2089 12.8969C39.1889 12.8969 40.7989 14.5069 40.7989 16.4869ZM41.8589 16.5369C41.8589 13.9869 39.7889 11.9169 37.2389 11.9169C34.6889 11.9169 32.6289 13.9869 32.6289 16.5369C32.6289 19.0869 34.6989 21.1569 37.2389 21.1569C39.7789 21.1569 41.8589 19.0869 41.8589 16.5369Z" fill="#FCE1D3"/>
<path d="M39.7816 16.4868C39.7816 17.9068 38.6316 19.0568 37.2216 19.0568C35.8116 19.0568 34.6616 17.9068 34.6616 16.4868C34.6616 15.0668 35.8116 13.9268 37.2216 13.9268C38.6316 13.9268 39.7816 15.0768 39.7816 16.4868ZM40.7816 16.4768C40.7816 14.4968 39.1716 12.8868 37.1916 12.8868C35.2116 12.8868 33.6016 14.4968 33.6016 16.4768C33.6016 18.4568 35.2116 20.0668 37.1916 20.0668C39.1716 20.0668 40.7816 18.4568 40.7816 16.4768Z" fill="#FCE7DB"/>
<path d="M38.7514 16.4869C38.7514 17.3369 38.0614 18.0269 37.2114 18.0269C36.3614 18.0269 35.6714 17.3369 35.6714 16.4869C35.6714 15.6369 36.3614 14.9469 37.2114 14.9469C38.0614 14.9469 38.7514 15.6369 38.7514 16.4869ZM39.8114 16.4769C39.8114 15.0569 38.6614 13.9069 37.2514 13.9069C35.8414 13.9069 34.6914 15.0569 34.6914 16.4769C34.6914 17.8969 35.8414 19.0469 37.2514 19.0469C38.6614 19.0469 39.8114 17.8969 39.8114 16.4769Z" fill="#FEEEE4"/>
<path d="M37.7284 16.4869L37.2184 17.0069L36.7084 16.4869L37.2184 15.9769L37.7284 16.4869ZM38.7284 16.4769C38.7284 15.6269 38.0384 14.9369 37.1884 14.9369C36.3384 14.9369 35.6484 15.6269 35.6484 16.4769C35.6484 17.3269 36.3384 18.0169 37.1884 18.0169C38.0384 18.0169 38.7284 17.3269 38.7284 16.4769Z" fill="#FFF4EE"/>
<path d="M37.6997 16.4769L37.1897 15.9569L36.6797 16.4769L37.1897 16.9869L37.6997 16.4769Z" fill="white"/>
</g>
<path d="M26.3274 3.10689C26.0974 3.87689 25.5674 4.71689 24.8074 5.55689C24.0374 6.40689 23.0374 7.26689 21.8674 8.08689C20.6974 8.90689 19.3674 9.67689 17.9374 10.3569C16.5274 11.0369 15.0274 11.6069 13.5274 12.0269C12.0374 12.4369 10.6874 12.6669 9.53735 12.7169C8.39735 12.7669 7.44735 12.6369 6.73735 12.3569C6.02735 12.0869 5.55735 11.6569 5.34735 11.1069C5.13735 10.5569 5.19735 9.88689 5.55735 9.10689L5.94735 8.38689C7.22735 6.39689 9.82735 4.44689 11.8774 3.23689L12.5074 2.87689C12.5074 2.87689 11.2374 3.84689 10.6074 4.64689C10.2574 5.09689 9.96735 5.48689 9.80735 5.85689C9.64735 6.23689 9.62735 6.56689 9.74735 6.82689C9.86735 7.08689 10.1074 7.28689 10.4674 7.40689C10.8274 7.52689 11.3074 7.57689 11.8674 7.54689C12.4374 7.50689 13.0974 7.39689 13.8274 7.18689C14.5574 6.97689 15.2874 6.69689 15.9774 6.36689C16.6674 6.03689 17.3174 5.66689 17.8874 5.26689C18.4574 4.86689 18.9574 4.45689 19.3474 4.04689C19.7274 3.63689 20.0074 3.22689 20.1374 2.84689C20.2674 2.47689 20.2474 2.15689 20.0974 1.91689C19.9474 1.67689 19.6774 1.49689 19.2874 1.39689C18.9174 1.29689 18.4474 1.31689 17.8874 1.42689C17.3474 1.52689 16.7174 1.57689 16.0074 1.78689C15.5574 1.91689 15.2974 2.01689 14.8674 2.21689C16.1974 1.52689 16.9774 1.20689 18.4074 0.756889C19.3274 0.466889 19.9574 0.296889 20.8074 0.146889C21.7874 -0.0331114 22.6174 -0.0231098 23.3674 0.0468902C24.1174 0.10689 24.7574 0.266891 25.2574 0.516891C25.7574 0.766891 26.1174 1.11689 26.2974 1.54689C26.4874 1.98689 26.5074 2.51689 26.3274 3.12689" fill="#E43C13"/>
<path d="M44.8111 36.0469C44.8111 36.0469 44.4811 36.9369 44.1911 37.4669C43.9211 37.9569 43.3811 38.6469 43.3811 38.6469L43.0811 39.0369C42.7511 39.4569 42.2011 40.0969 42.2011 40.0969L41.4711 40.8969C40.7111 41.6869 39.8511 42.4369 38.8911 43.1569C37.9311 43.8769 36.8911 44.5469 35.7811 45.1469C34.6711 45.7569 33.5111 46.2969 32.3011 46.7469C31.1011 47.1969 29.8611 47.5669 28.6111 47.8269L27.8811 47.9669C25.6911 48.3669 23.4011 48.3769 21.1911 48.1169L20.7811 48.0569C20.1711 47.9769 19.8211 47.9169 19.2111 47.7869C18.5911 47.6569 17.6311 47.4069 17.6311 47.4069L16.8411 47.1369L16.6211 47.0269C17.1811 47.2469 17.9111 47.4469 18.6311 47.5669C19.3611 47.6769 20.1411 47.7469 20.9711 47.7469C21.8011 47.7569 22.6711 47.7169 23.5911 47.6269C24.5011 47.5269 25.4611 47.3769 26.4511 47.1669C28.7211 46.6769 30.9611 45.9369 33.1011 44.9869C35.2311 44.0369 37.2411 42.8969 39.0411 41.6169C40.8311 40.3469 42.3911 38.9669 43.6611 37.5269C44.1011 37.0269 44.4611 36.5769 44.8311 36.0269V36.0469" fill="#E43C13"/>
<path d="M31.7902 1.17687L33.3802 1.77687L34.9502 2.49687L35.5002 2.78687C35.9402 3.01687 36.3202 3.28687 36.6502 3.59687C36.9702 3.90687 37.2402 4.25687 37.4302 4.64687C37.6302 5.03687 37.7602 5.46687 37.8002 5.92687C37.8602 6.39687 37.8302 6.89687 37.7202 7.44687C37.4302 8.87687 36.5902 10.4269 35.3202 11.9969C34.0102 13.5969 32.2602 15.2069 30.1802 16.7269C28.0802 18.2669 25.6702 19.7069 23.0802 20.9369C20.4802 22.1769 17.7402 23.1969 14.9902 23.8969C12.5402 24.5269 10.3102 24.8469 8.37021 24.8969C6.46021 24.9369 4.84021 24.7169 3.58021 24.2569C2.33021 23.8069 1.41021 23.1269 0.890212 22.2469C0.370212 21.3969 0.210212 20.3569 0.470211 19.1569L0.58021 18.6469L1.03021 16.9569L1.60021 15.3269L2.19021 13.9469L2.73021 12.8269L2.64021 13.0569L2.62021 13.1069C2.11021 14.2269 2.01021 15.2069 2.27021 16.0169C2.54021 16.8469 3.19021 17.5069 4.18021 17.9469C5.18021 18.3969 6.53021 18.6269 8.17021 18.5969C9.83021 18.5669 11.7802 18.2769 13.9402 17.6969C16.1302 17.1069 18.3102 16.2869 20.3702 15.3069C22.4302 14.3269 24.3602 13.1869 26.0502 11.9769C27.7302 10.7769 29.1502 9.51687 30.2302 8.26687C31.3002 7.03687 32.0102 5.81687 32.2902 4.69687C32.4302 4.11687 32.4602 3.58687 32.3602 3.11687C32.2802 2.64687 32.0702 2.23687 31.7802 1.87687C31.4802 1.51687 31.0902 1.21687 30.6202 0.976871C30.3002 0.816871 29.9502 0.676872 29.5502 0.566872L28.9702 0.41687L29.5502 0.526871C29.5502 0.526871 30.1202 0.666872 30.4902 0.766872C31.0002 0.916872 31.8102 1.19687 31.8102 1.19687" fill="#E43C13"/>
<path d="M42.3608 8.2669L43.5408 9.74689L44.6208 11.3369L45.1008 12.1469L45.4708 12.9469C45.5708 13.2269 45.6508 13.5169 45.7008 13.8169C45.7508 14.1169 45.7808 14.4369 45.7908 14.7669C45.7908 15.0969 45.7808 15.4369 45.7408 15.7869C45.5008 17.6169 44.6008 19.5769 43.1408 21.5469C41.6508 23.5669 39.6108 25.5869 37.1408 27.4769C34.6508 29.3969 31.7608 31.1569 28.6408 32.6569C25.5208 34.1469 22.2008 35.3469 18.8708 36.1369C16.5008 36.6969 14.2908 36.9969 12.3008 37.0669C10.3408 37.1369 8.59078 36.9769 7.09078 36.6269C5.62078 36.2769 4.40078 35.7369 3.45078 35.0369C2.52078 34.3469 1.85078 33.4869 1.48078 32.4969L1.10078 31.4169L0.59078 29.5669L0.230782 27.7069L0.160781 27.1869L0.0507812 26.1369C0.180781 27.1369 0.600781 28.0169 1.29078 28.7469C2.07078 29.5669 3.18078 30.1969 4.60078 30.6069C6.04078 31.0269 7.79078 31.2269 9.80078 31.1669C11.8408 31.1069 14.1408 30.7869 16.6508 30.1669C19.7908 29.3869 22.9208 28.2369 25.8808 26.8369C28.8408 25.4269 31.5808 23.7669 33.9508 21.9869C36.3008 20.2269 38.2608 18.3569 39.7108 16.4969C41.1208 14.6769 42.0208 12.8669 42.2908 11.1969C42.3608 10.7269 42.3908 10.2869 42.3608 9.85689C42.3308 9.43689 42.2608 9.04689 42.1408 8.66689C42.0208 8.29689 41.8608 7.95689 41.6508 7.62689L41.2308 7.06689L42.2108 8.09689" fill="#E43C13"/>
<path d="M48.1897 22.1469C48.3297 23.6569 48.3797 24.5369 48.1397 26.0269C47.7697 28.3369 47.1597 29.6969 45.8697 31.5769C44.5497 33.4869 42.7197 35.3869 40.5197 37.1469C38.2897 38.9269 35.6897 40.5469 32.8797 41.8969C30.0697 43.2369 27.0597 44.3069 24.0297 44.9669C22.4597 45.3069 20.9597 45.5269 19.5597 45.6269C18.1697 45.7269 16.8697 45.7069 15.6797 45.5869C14.4997 45.4569 13.4297 45.2269 12.4797 44.9069C11.5397 44.5869 10.7097 44.1769 10.0197 43.6869L8.55969 42.5469L7.33969 41.4469C7.33969 41.4469 6.50969 40.6369 6.02969 40.0769C5.67969 39.6669 5.17969 39.0069 5.17969 39.0069C5.74969 39.6569 6.43969 40.2069 7.30969 40.6669C8.32969 41.2069 9.53969 41.6069 10.9397 41.8569C12.3597 42.1069 13.9497 42.1969 15.6997 42.1069C17.4697 42.0169 19.3897 41.7569 21.4497 41.2969C24.7397 40.5569 28.0097 39.3969 31.0797 37.9169C34.1497 36.4469 36.9897 34.6869 39.4297 32.7769C41.8397 30.8869 43.8397 28.8569 45.2797 26.8169C46.6997 24.8269 47.5597 22.8369 47.7697 20.9669L47.8097 20.3769L47.7697 19.7969L48.0197 20.6469C48.0197 20.6469 48.1697 21.5669 48.2297 22.1669" fill="#E43C13"/>
<path d="M60 28.23H61.73V24.36C61.73 21.56 63.03 20.77 64.59 20.77V18.89C62.79 18.89 62.02 20.22 61.77 20.94H61.73V19.1H60" fill="#201E21"/>
<path fill-rule="evenodd" clip-rule="evenodd" d="M67.5188 21.8499C67.5188 21.4399 67.9188 20.2399 69.3388 20.2399C70.6688 20.2399 71.0088 21.2799 71.0088 21.8499M72.5287 26.7799C72.1287 26.9199 71.5888 27.1099 70.7988 27.1099C68.3088 27.1099 67.4488 24.7199 67.4488 23.0099H72.7387V22.5699C72.7387 20.4199 71.6687 18.9099 69.4387 18.9099C68.2687 18.9099 65.7188 19.3299 65.7188 23.2499C65.7188 26.8299 67.4888 28.4599 70.2488 28.4599C71.2388 28.4599 71.7787 28.3299 72.5287 28.1499V26.7899V26.7799Z" fill="#201E21"/>
<path fill-rule="evenodd" clip-rule="evenodd" d="M76.1214 23.66C76.1214 21.74 76.5614 20.23 77.9014 20.23C79.4314 20.23 79.8914 22.05 79.8914 23.64C79.8914 25.23 79.3114 27.09 77.9214 27.09C76.3114 27.09 76.1214 25.04 76.1214 23.66ZM79.8914 28.22H81.6214V15H79.8914V20.37H79.8514C79.6414 19.83 78.9314 18.89 77.4114 18.89C75.3414 18.89 74.1914 20.79 74.1914 23.82C74.1914 26.43 75.0914 28.44 77.3114 28.44C78.9014 28.44 79.6514 27.35 79.8414 26.83H79.8814V28.23L79.8914 28.22Z" fill="#201E21"/>
<path fill-rule="evenodd" clip-rule="evenodd" d="M85.6995 23.66C85.6995 21.74 86.1395 20.23 87.4795 20.23C89.0095 20.23 89.4695 22.05 89.4695 23.64C89.4695 25.23 88.8895 27.09 87.4995 27.09C85.8895 27.09 85.6995 25.04 85.6995 23.66ZM89.4695 28.22H91.1995V15H89.4695V20.37H89.4295C89.2195 19.83 88.5095 18.89 86.9895 18.89C84.9195 18.89 83.7695 20.79 83.7695 23.82C83.7695 26.43 84.6695 28.44 86.8895 28.44C88.4795 28.44 89.2295 27.35 89.4195 26.83H89.4595V28.23L89.4695 28.22Z" fill="#E43C13"/>
<path fill-rule="evenodd" clip-rule="evenodd" d="M95.2716 23.66C95.2716 22.19 95.5016 20.23 97.4016 20.23C99.3016 20.23 99.5116 22.19 99.5116 23.66C99.5116 25.13 99.2616 27.09 97.4016 27.09C95.5416 27.09 95.2716 25.11 95.2716 23.66ZM97.4016 28.43C100.142 28.43 101.432 26.53 101.432 23.66C101.432 20.79 100.152 18.89 97.4016 18.89C94.6516 18.89 93.3516 20.75 93.3516 23.66C93.3516 26.57 94.6416 28.43 97.4016 28.43Z" fill="#E43C13"/>
<path d="M108.421 26.96C108.171 27.04 107.811 27.1 107.501 27.1C106.161 27.1 106.041 26.14 106.041 25.32V20.44H108.571V19.1H106.041V15.88L104.321 16.95V19.1H102.691V20.44H104.321V26.21C104.321 27.46 104.861 28.43 107.061 28.43C107.521 28.43 107.981 28.39 108.421 28.29" fill="#E43C13"/>
<path d="M113.97 28L111.165 19.1395H112.799L114.185 24.0565C114.465 25.063 114.762 26.647 114.762 26.647H114.795C114.795 26.647 115.092 25.162 115.389 24.0895L116.726 19.1395H118.178L119.498 24.0895C119.745 25.03 120.059 26.6635 120.059 26.6635H120.091C120.091 26.6635 120.339 25.1455 120.669 24.0565L122.138 19.1395H123.722L120.834 28H119.3L117.996 23.116C117.782 22.258 117.435 20.641 117.435 20.641H117.402C117.402 20.641 117.072 22.2745 116.858 23.116L115.521 28H113.97ZM124.914 17.506V15.724H126.514V17.506H124.914ZM124.947 28V19.1395H126.481V28H124.947ZM130.106 19.1395V20.3935H130.156C130.799 19.5025 131.674 18.925 132.961 18.925C134.809 18.925 135.947 19.9645 135.947 21.8125V28H134.429V21.994C134.429 20.8555 133.687 20.212 132.482 20.212C131.113 20.212 130.123 21.1855 130.123 22.6045V28H128.588V19.1395H130.106ZM139.532 19.1395V20.3935H139.582C140.225 19.5025 141.1 18.925 142.387 18.925C144.235 18.925 145.373 19.9645 145.373 21.8125V28H143.855V21.994C143.855 20.8555 143.113 20.212 141.908 20.212C140.539 20.212 139.549 21.1855 139.549 22.6045V28H138.014V19.1395H139.532ZM151.285 28.2475C148.563 28.2475 146.962 26.1685 146.962 23.578C146.962 21.004 148.662 18.925 151.203 18.925C152.523 18.925 153.546 19.4365 154.239 20.2945C154.965 21.169 155.328 22.4395 155.328 23.941H148.53C148.645 25.6735 149.586 26.9935 151.302 26.9935C152.523 26.9935 153.364 26.416 153.645 25.4755H155.146C154.75 27.1255 153.331 28.2475 151.285 28.2475ZM151.203 20.113C149.602 20.113 148.761 21.268 148.563 22.8355H153.694C153.612 21.136 152.737 20.113 151.203 20.113ZM158.482 19.1395V20.74H158.531C159.076 19.717 159.983 19.024 161.155 19.024C161.402 19.024 161.551 19.057 161.716 19.123V20.575H161.666C161.452 20.509 161.303 20.4925 161.039 20.4925C159.67 20.4925 158.498 21.5155 158.498 23.182V28H156.964V19.1395H158.482Z" fill="#201E21"/>
</svg>
